<svg xmlns="http://www.w3.org/2000/svg" xmlns:xlink="http://www.w3.org/1999/xlink" width="300" height="300"><g transform="translate(300,200)"><path stroke="red" fill="red" d="M-150 -100 L-150 -50 L-100 -50 L-100 -100 L-150 -100" /><path stroke="green" fill="green" d="M-100 -150 L-100 -100 L-50 -100 L-50 -150 L-100 -150" /><path stroke="blue" fill="blue" d="M-150 -150 L-150 -100 L-100 -100 L-100 -150 L-150 -150" /><path stroke="red" fill="red" d="M-150 0 L-100 0 L-100 -50 L-150 -50 L-150 0" /><path stroke="red" fill="red" d="M-200 -100 L-150 -100 L-150 -50 L-200 -50 L-200 -100" /><path stroke="blue" fill="blue" d="M-200 -150 L-150 -150 L-150 -100 L-200 -100 L-200 -150" /><path stroke="yellow" fill="yellow" d="M-250 -150 L-200 -150 L-200 -100 L-250 -100 L-250 -150" /><path stroke="red" fill="red" d="M-50 0 L-50 -50 L-100 -50 L-100 0 L-50 0" /><path stroke="red" fill="red" d="M-150 50 L-150 0 L-100 0 L-100 50 L-150 50" /><path stroke-width="1" stroke-dasharray="1.5625,0.390625" stroke="black" fill="white" d="M-55.00000000000001 -100 L-61.25000000000001 -90 L-88.75 -90 L-95 -100" /><path stroke-width="1" stroke-dasharray="1.5625,0.390625" stroke="black" fill="white" d="M-60 -100 L-61.25000000000001 -97.5 L-88.75 -97.5 L-90 -100" /><path stroke-width="1" stroke-dasharray="1.5625,0.390625" stroke="black" fill="white" d="M-50 -100 L-55.00000000000001 -100" /><path stroke-width="1" stroke-dasharray="1.5625,0.390625" stroke="black" fill="white" d="M-100 -100 L-95 -100" /><text font-size="5" fill="black" text-anchor="middle" transform="matrix(-1,0,0,-1,-75,-96)">0</text><path stroke-width="1" stroke-dasharray="1.5625,0.390625" stroke="black" fill="white" d="M-100 -95 L-90 -88.75 L-90 -61.25000000000001 L-100 -55.00000000000001" /><path stroke-width="1" stroke-dasharray="1.5625,0.390625" stroke="black" fill="white" d="M-100 -90 L-97.5 -88.75 L-97.5 -61.25000000000001 L-100 -60" /><path stroke-width="1" stroke-dasharray="1.5625,0.390625" stroke="black" fill="white" d="M-100 -100 L-100 -95" /><path stroke-width="1" stroke-dasharray="1.5625,0.390625" stroke="black" fill="white" d="M-100 -50 L-100 -55.00000000000001" /><text font-size="5" fill="black" text-anchor="middle" transform="matrix(0,1,-1,0,-96,-75)">1</text><path stroke-width="1" stroke-dasharray="1.5625,0.390625" stroke="black" fill="white" d="M-145 -150 L-138.75 -160 L-61.25000000000001 -160 L-55.00000000000001 -150" /><path stroke-width="1" stroke-dasharray="1.5625,0.390625" stroke="black" fill="white" d="M-140 -150 L-138.75 -152.5 L-61.25000000000001 -152.5 L-60 -150" /><path stroke-width="1" stroke-dasharray="1.5625,0.390625" stroke="black" fill="white" d="M-150 -150 L-145 -150" /><path stroke-width="1" stroke-dasharray="1.5625,0.390625" stroke="black" fill="white" d="M-50 -150 L-55.00000000000001 -150" /><text font-size="5" fill="black" text-anchor="middle" transform="matrix(1,0,0,1,-100,-154)">2</text><path stroke-width="1" stroke-dasharray="1.5625,0.390625" stroke="black" fill="white" d="M-50 -145 L-40 -138.75 L-40 -111.25 L-50 -105" /><path stroke-width="1" stroke-dasharray="1.5625,0.390625" stroke="black" fill="white" d="M-50 -140 L-47.5 -138.75 L-47.5 -111.25 L-50 -110.00000000000001" /><path stroke-width="1" stroke-dasharray="1.5625,0.390625" stroke="black" fill="white" d="M-50 -150 L-50 -145" /><path stroke-width="1" stroke-dasharray="1.5625,0.390625" stroke="black" fill="white" d="M-50 -100 L-50 -105" /><text font-size="5" fill="black" text-anchor="middle" transform="matrix(0,1,-1,0,-46,-125)">3</text><path stroke-width="1" stroke-dasharray="1.5625,0.390625" stroke="black" fill="white" d="M-150 -5 L-160 -11.25 L-160 -38.75 L-150 -45" /><path stroke-width="1" stroke-dasharray="1.5625,0.390625" stroke="black" fill="white" d="M-150 -10 L-152.5 -11.25 L-152.5 -38.75 L-150 -40" /><path stroke-width="1" stroke-dasharray="1.5625,0.390625" stroke="black" fill="white" d="M-150 0 L-150 -5" /><path stroke-width="1" stroke-dasharray="1.5625,0.390625" stroke="black" fill="white" d="M-150 -50 L-150 -45" /><text font-size="5" fill="black" text-anchor="middle" transform="matrix(0,-1,1,0,-154,-25)">4</text><path stroke-width="1" stroke-dasharray="1.5625,0.390625" stroke="black" fill="white" d="M-200 -55.00000000000001 L-210 -61.25000000000001 L-210 -88.75 L-200 -95" /><path stroke-width="1" stroke-dasharray="1.5625,0.390625" stroke="black" fill="white" d="M-200 -60 L-202.5 -61.25000000000001 L-202.5 -88.75 L-200 -90" /><path stroke-width="1" stroke-dasharray="1.5625,0.390625" stroke="black" fill="white" d="M-200 -50 L-200 -55.00000000000001" /><path stroke-width="1" stroke-dasharray="1.5625,0.390625" stroke="black" fill="white" d="M-200 -100 L-200 -95" /><text font-size="5" fill="black" text-anchor="middle" transform="matrix(0,-1,1,0,-204,-75)">5</text><path stroke-width="1" stroke-dasharray="1.5625,0.390625" stroke="black" fill="white" d="M-204.99999999999997 -100 L-211.24999999999997 -90 L-238.75000000000003 -90 L-245.00000000000003 -100" /><path stroke-width="1" stroke-dasharray="1.5625,0.390625" stroke="black" fill="white" d="M-210 -100 L-211.24999999999997 -97.5 L-238.75000000000003 -97.5 L-240 -100" /><path stroke-width="1" stroke-dasharray="1.5625,0.390625" stroke="black" fill="white" d="M-200 -100 L-204.99999999999997 -100" /><path stroke-width="1" stroke-dasharray="1.5625,0.390625" stroke="black" fill="white" d="M-250 -100 L-245.00000000000003 -100" /><text font-size="5" fill="black" text-anchor="middle" transform="matrix(-1,0,0,-1,-225,-96)">6</text><path stroke-width="1" stroke-dasharray="1.5625,0.390625" stroke="black" fill="white" d="M-250 -105 L-260 -111.25 L-260 -138.75 L-250 -145" /><path stroke-width="1" stroke-dasharray="1.5625,0.390625" stroke="black" fill="white" d="M-250 -110.00000000000001 L-252.5 -111.25 L-252.5 -138.75 L-250 -140" /><path stroke-width="1" stroke-dasharray="1.5625,0.390625" stroke="black" fill="white" d="M-250 -100 L-250 -105" /><path stroke-width="1" stroke-dasharray="1.5625,0.390625" stroke="black" fill="white" d="M-250 -150 L-250 -145" /><text font-size="5" fill="black" text-anchor="middle" transform="matrix(0,-1,1,0,-254,-125)">7</text><path stroke-width="1" stroke-dasharray="1.5625,0.390625" stroke="black" fill="white" d="M-245.00000000000003 -150 L-238.75000000000003 -160 L-161.25 -160 L-155 -150" /><path stroke-width="1" stroke-dasharray="1.5625,0.390625" stroke="black" fill="white" d="M-240 -150 L-238.75000000000003 -152.5 L-161.25 -152.5 L-160 -150" /><path stroke-width="1" stroke-dasharray="1.5625,0.390625" stroke="black" fill="white" d="M-250 -150 L-245.00000000000003 -150" /><path stroke-width="1" stroke-dasharray="1.5625,0.390625" stroke="black" fill="white" d="M-150 -150 L-155 -150" /><text font-size="5" fill="black" text-anchor="middle" transform="matrix(1,0,0,1,-200,-154)">8</text><path stroke-width="1" stroke-dasharray="1.5625,0.390625" stroke="black" fill="white" d="M-162.5 -50 L-165 -37.5 L-185 -37.5 L-187.5 -50" /><path stroke-width="1" stroke-dasharray="1.5625,0.390625" stroke="black" fill="white" d="M-150 -50 L-162.5 -50" /><path stroke-width="1" stroke-dasharray="1.5625,0.390625" stroke="black" fill="white" d="M-200 -50 L-187.5 -50" /><text font-size="5" fill="black" text-anchor="middle" transform="matrix(-1,0,0,-1,-175,-46)">4</text><path stroke-width="1" stroke-dasharray="1.5625,0.390625" stroke="black" fill="white" d="M-87.5 -50 L-85 -62.5 L-65 -62.5 L-62.5 -50" /><path stroke-width="1" stroke-dasharray="1.5625,0.390625" stroke="black" fill="white" d="M-100 -50 L-87.5 -50" /><path stroke-width="1" stroke-dasharray="1.5625,0.390625" stroke="black" fill="white" d="M-50 -50 L-62.5 -50" /><text font-size="5" fill="black" text-anchor="middle" transform="matrix(1,0,0,1,-75,-54)">1</text><path stroke-width="1" stroke-dasharray="1.5625,0.390625" stroke="black" fill="white" d="M-50 -45 L-40 -38.75 L-40 -11.25 L-50 -5" /><path stroke-width="1" stroke-dasharray="1.5625,0.390625" stroke="black" fill="white" d="M-50 -40 L-47.5 -38.75 L-47.5 -11.25 L-50 -10" /><path stroke-width="1" stroke-dasharray="1.5625,0.390625" stroke="black" fill="white" d="M-50 -50 L-50 -45" /><path stroke-width="1" stroke-dasharray="1.5625,0.390625" stroke="black" fill="white" d="M-50 0 L-50 -5" /><text font-size="5" fill="black" text-anchor="middle" transform="matrix(0,1,-1,0,-46,-25)">9</text><path stroke-width="1" stroke-dasharray="1.5625,0.390625" stroke="black" fill="white" d="M-55.00000000000001 0 L-61.25000000000001 10 L-88.75 10 L-95 0" /><path stroke-width="1" stroke-dasharray="1.5625,0.390625" stroke="black" fill="white" d="M-60 0 L-61.25000000000001 2.5 L-88.75 2.5 L-90 0" /><path stroke-width="1" stroke-dasharray="1.5625,0.390625" stroke="black" fill="white" d="M-50 0 L-55.00000000000001 0" /><path stroke-width="1" stroke-dasharray="1.5625,0.390625" stroke="black" fill="white" d="M-100 0 L-95 0" /><text font-size="5" fill="black" text-anchor="middle" transform="matrix(-1,0,0,-1,-75,4)">10</text><path stroke-width="1" stroke-dasharray="1.5625,0.390625" stroke="black" fill="white" d="M-105 50 L-111.25 60 L-138.75 60 L-145 50" /><path stroke-width="1" stroke-dasharray="1.5625,0.390625" stroke="black" fill="white" d="M-110.00000000000001 50 L-111.25 52.5 L-138.75 52.5 L-140 50" /><path stroke-width="1" stroke-dasharray="1.5625,0.390625" stroke="black" fill="white" d="M-100 50 L-105 50" /><path stroke-width="1" stroke-dasharray="1.5625,0.390625" stroke="black" fill="white" d="M-150 50 L-145 50" /><text font-size="5" fill="black" text-anchor="middle" transform="matrix(-1,0,0,-1,-125,54)">11</text><path stroke-width="1" stroke-dasharray="1.5625,0.390625" stroke="black" fill="white" d="M-150 37.5 L-162.5 35 L-162.5 15 L-150 12.5" /><path stroke-width="1" stroke-dasharray="1.5625,0.390625" stroke="black" fill="white" d="M-150 50 L-150 37.5" /><path stroke-width="1" stroke-dasharray="1.5625,0.390625" stroke="black" fill="white" d="M-150 0 L-150 12.5" /><text font-size="5" fill="black" text-anchor="middle" transform="matrix(0,-1,1,0,-154,25)">5</text><path stroke-width="1" stroke-dasharray="1.5625,0.390625" stroke="black" fill="white" d="M-100 12.5 L-87.5 15 L-87.5 35 L-100 37.5" /><path stroke-width="1" stroke-dasharray="1.5625,0.390625" stroke="black" fill="white" d="M-100 0 L-100 12.5" /><path stroke-width="1" stroke-dasharray="1.5625,0.390625" stroke="black" fill="white" d="M-100 50 L-100 37.5" /><text font-size="5" fill="black" text-anchor="middle" transform="matrix(0,1,-1,0,-96,25)">10</text><line x1="-100" y1="-50" x2="-150" y2="-50" stroke="magenta" stroke-width="1" /><line x1="-150" y1="-50" x2="-150" y2="-150" stroke="magenta" stroke-width="1" /><line x1="-100" y1="-50" x2="-100" y2="0" stroke="magenta" stroke-width="1" /><line x1="-100" y1="0" x2="-150" y2="0" stroke="magenta" stroke-width="1" /></g></svg>