<svg xmlns="http://www.w3.org/2000/svg" xmlns:xlink="http://www.w3.org/1999/xlink" width="300" height="300"><g transform="translate(250,0)"><path stroke="green" fill="green" d="M-100 150 L-100 100 L-50 100 L-50 150 L-100 150" /><path stroke="yellow" fill="yellow" d="M-150 150 L-100 150 L-100 100 L-150 100 L-150 150" /><path stroke="green" fill="green" d="M-100 100 L-50 100 L-50 50 L-100 50 L-100 100" /><path stroke="green" fill="green" d="M-50 150 L0 150 L0 100 L-50 100 L-50 150" /><path stroke="yellow" fill="yellow" d="M-200 150 L-200 100 L-150 100 L-150 150 L-200 150" /><path stroke="green" fill="green" d="M-50 200 L-50 150 L0 150 L0 200 L-50 200" /><path stroke="blue" fill="blue" d="M-50 250 L-50 200 L0 200 L0 250 L-50 250" /><path stroke="yellow" fill="yellow" d="M-100 250 L-100 200 L-50 200 L-50 250 L-100 250" /><path stroke="yellow" fill="yellow" d="M-200 100 L-150 100 L-150 50 L-200 50 L-200 100" /><path stroke-width="1" stroke-dasharray="1.5625,0.390625" stroke="black" fill="white" d="M-55.00000000000001 150 L-61.25000000000001 160 L-88.75 160 L-95 150" /><path stroke-width="1" stroke-dasharray="1.5625,0.390625" stroke="black" fill="white" d="M-60 150 L-61.25000000000001 152.5 L-88.75 152.5 L-90 150" /><path stroke-width="1" stroke-dasharray="1.5625,0.390625" stroke="black" fill="white" d="M-50 150 L-55.00000000000001 150" /><path stroke-width="1" stroke-dasharray="1.5625,0.390625" stroke="black" fill="white" d="M-100 150 L-95 150" /><text font-size="5" fill="black" text-anchor="middle" transform="matrix(-1,0,0,-1,-75,154)">12</text><path stroke-width="1" stroke-dasharray="1.5625,0.390625" stroke="black" fill="white" d="M-105 150 L-111.25 160 L-138.75 160 L-145 150" /><path stroke-width="1" stroke-dasharray="1.5625,0.390625" stroke="black" fill="white" d="M-110.00000000000001 150 L-111.25 152.5 L-138.75 152.5 L-140 150" /><path stroke-width="1" stroke-dasharray="1.5625,0.390625" stroke="black" fill="white" d="M-100 150 L-105 150" /><path stroke-width="1" stroke-dasharray="1.5625,0.390625" stroke="black" fill="white" d="M-150 150 L-145 150" /><text font-size="5" fill="black" text-anchor="middle" transform="matrix(-1,0,0,-1,-125,154)">13</text><path stroke-width="1" stroke-dasharray="1.5625,0.390625" stroke="black" fill="white" d="M-145 100 L-138.75 90 L-111.25 90 L-105 100" /><path stroke-width="1" stroke-dasharray="1.5625,0.390625" stroke="black" fill="white" d="M-140 100 L-138.75 97.5 L-111.25 97.5 L-110.00000000000001 100" /><path stroke-width="1" stroke-dasharray="1.5625,0.390625" stroke="black" fill="white" d="M-150 100 L-145 100" /><path stroke-width="1" stroke-dasharray="1.5625,0.390625" stroke="black" fill="white" d="M-100 100 L-105 100" /><text font-size="5" fill="black" text-anchor="middle" transform="matrix(1,0,0,1,-125,96)">14</text><path stroke-width="1" stroke-dasharray="1.5625,0.390625" stroke="black" fill="white" d="M-50 55.00000000000001 L-40 61.25000000000001 L-40 88.75 L-50 95" /><path stroke-width="1" stroke-dasharray="1.5625,0.390625" stroke="black" fill="white" d="M-50 60 L-47.5 61.25000000000001 L-47.5 88.75 L-50 90" /><path stroke-width="1" stroke-dasharray="1.5625,0.390625" stroke="black" fill="white" d="M-50 50 L-50 55.00000000000001" /><path stroke-width="1" stroke-dasharray="1.5625,0.390625" stroke="black" fill="white" d="M-50 100 L-50 95" /><text font-size="5" fill="black" text-anchor="middle" transform="matrix(0,1,-1,0,-46,75)">15</text><path stroke-width="1" stroke-dasharray="1.5625,0.390625" stroke="black" fill="white" d="M-100 87.5 L-112.5 85 L-112.5 65 L-100 62.5" /><path stroke-width="1" stroke-dasharray="1.5625,0.390625" stroke="black" fill="white" d="M-100 100 L-100 87.5" /><path stroke-width="1" stroke-dasharray="1.5625,0.390625" stroke="black" fill="white" d="M-100 50 L-100 62.5" /><text font-size="5" fill="black" text-anchor="middle" transform="matrix(0,-1,1,0,-104,75)">9</text><path stroke-width="1" stroke-dasharray="1.5625,0.390625" stroke="black" fill="white" d="M-87.5 50 L-85 37.5 L-65 37.5 L-62.5 50" /><path stroke-width="1" stroke-dasharray="1.5625,0.390625" stroke="black" fill="white" d="M-100 50 L-87.5 50" /><path stroke-width="1" stroke-dasharray="1.5625,0.390625" stroke="black" fill="white" d="M-50 50 L-62.5 50" /><text font-size="5" fill="black" text-anchor="middle" transform="matrix(1,0,0,1,-75,46)">0</text><path stroke-width="1" stroke-dasharray="1.5625,0.390625" stroke="black" fill="white" d="M0 112.5 L12.5 114.99999999999999 L12.5 135 L0 137.5" /><path stroke-width="1" stroke-dasharray="1.5625,0.390625" stroke="black" fill="white" d="M0 100 L0 112.5" /><path stroke-width="1" stroke-dasharray="1.5625,0.390625" stroke="black" fill="white" d="M0 150 L0 137.5" /><text font-size="5" fill="black" text-anchor="middle" transform="matrix(0,1,-1,0,4,125)">3</text><path stroke-width="1" stroke-dasharray="1.5625,0.390625" stroke="black" fill="white" d="M-37.5 100 L-35 87.5 L-15 87.5 L-12.5 100" /><path stroke-width="1" stroke-dasharray="1.5625,0.390625" stroke="black" fill="white" d="M-50 100 L-37.5 100" /><path stroke-width="1" stroke-dasharray="1.5625,0.390625" stroke="black" fill="white" d="M0 100 L-12.5 100" /><text font-size="5" fill="black" text-anchor="middle" transform="matrix(1,0,0,1,-25,96)">15</text><path stroke-width="1" stroke-dasharray="1.5625,0.390625" stroke="black" fill="white" d="M-155 150 L-161.25 160 L-188.75 160 L-195 150" /><path stroke-width="1" stroke-dasharray="1.5625,0.390625" stroke="black" fill="white" d="M-160 150 L-161.25 152.5 L-188.75 152.5 L-190 150" /><path stroke-width="1" stroke-dasharray="1.5625,0.390625" stroke="black" fill="white" d="M-150 150 L-155 150" /><path stroke-width="1" stroke-dasharray="1.5625,0.390625" stroke="black" fill="white" d="M-200 150 L-195 150" /><text font-size="5" fill="black" text-anchor="middle" transform="matrix(-1,0,0,-1,-175,154)">16</text><path stroke-width="1" stroke-dasharray="1.5625,0.390625" stroke="black" fill="white" d="M-200 137.5 L-212.5 135 L-212.5 114.99999999999999 L-200 112.5" /><path stroke-width="1" stroke-dasharray="1.5625,0.390625" stroke="black" fill="white" d="M-200 150 L-200 137.5" /><path stroke-width="1" stroke-dasharray="1.5625,0.390625" stroke="black" fill="white" d="M-200 100 L-200 112.5" /><text font-size="5" fill="black" text-anchor="middle" transform="matrix(0,-1,1,0,-204,125)">7</text><path stroke-width="1" stroke-dasharray="1.5625,0.390625" stroke="black" fill="white" d="M-12.5 250 L-15 262.5 L-85 262.5 L-87.5 250" /><path stroke-width="1" stroke-dasharray="1.5625,0.390625" stroke="black" fill="white" d="M0 250 L-12.5 250" /><path stroke-width="1" stroke-dasharray="1.5625,0.390625" stroke="black" fill="white" d="M-100 250 L-87.5 250" /><text font-size="5" fill="black" text-anchor="middle" transform="matrix(-1,0,0,-1,-50,254)">8</text><path stroke-width="1" stroke-dasharray="1.5625,0.390625" stroke="black" fill="white" d="M-100 237.5 L-112.5 235 L-112.5 215 L-100 212.5" /><path stroke-width="1" stroke-dasharray="1.5625,0.390625" stroke="black" fill="white" d="M-100 250 L-100 237.5" /><path stroke-width="1" stroke-dasharray="1.5625,0.390625" stroke="black" fill="white" d="M-100 200 L-100 212.5" /><text font-size="5" fill="black" text-anchor="middle" transform="matrix(0,-1,1,0,-104,225)">16</text><path stroke-width="1" stroke-dasharray="1.5625,0.390625" stroke="black" fill="white" d="M-87.5 200 L-85 187.5 L-65 187.5 L-62.5 200" /><path stroke-width="1" stroke-dasharray="1.5625,0.390625" stroke="black" fill="white" d="M-100 200 L-87.5 200" /><path stroke-width="1" stroke-dasharray="1.5625,0.390625" stroke="black" fill="white" d="M-50 200 L-62.5 200" /><text font-size="5" fill="black" text-anchor="middle" transform="matrix(1,0,0,1,-75,196)">13</text><path stroke-width="1" stroke-dasharray="1.5625,0.390625" stroke="black" fill="white" d="M-50 187.5 L-62.5 185 L-62.5 165 L-50 162.5" /><path stroke-width="1" stroke-dasharray="1.5625,0.390625" stroke="black" fill="white" d="M-50 200 L-50 187.5" /><path stroke-width="1" stroke-dasharray="1.5625,0.390625" stroke="black" fill="white" d="M-50 150 L-50 162.5" /><text font-size="5" fill="black" text-anchor="middle" transform="matrix(0,-1,1,0,-54,175)">12</text><path stroke-width="1" stroke-dasharray="1.5625,0.390625" stroke="black" fill="white" d="M0 162.5 L12.5 165 L12.5 235 L0 237.5" /><path stroke-width="1" stroke-dasharray="1.5625,0.390625" stroke="black" fill="white" d="M0 150 L0 162.5" /><path stroke-width="1" stroke-dasharray="1.5625,0.390625" stroke="black" fill="white" d="M0 250 L0 237.5" /><text font-size="5" fill="black" text-anchor="middle" transform="matrix(0,1,-1,0,4,200)">2</text><path stroke-width="1" stroke-dasharray="1.5625,0.390625" stroke="black" fill="white" d="M-150 62.5 L-137.5 65 L-137.5 85 L-150 87.5" /><path stroke-width="1" stroke-dasharray="1.5625,0.390625" stroke="black" fill="white" d="M-150 50 L-150 62.5" /><path stroke-width="1" stroke-dasharray="1.5625,0.390625" stroke="black" fill="white" d="M-150 100 L-150 87.5" /><text font-size="5" fill="black" text-anchor="middle" transform="matrix(0,1,-1,0,-146,75)">14</text><path stroke-width="1" stroke-dasharray="1.5625,0.390625" stroke="black" fill="white" d="M-200 87.5 L-212.5 85 L-212.5 65 L-200 62.5" /><path stroke-width="1" stroke-dasharray="1.5625,0.390625" stroke="black" fill="white" d="M-200 100 L-200 87.5" /><path stroke-width="1" stroke-dasharray="1.5625,0.390625" stroke="black" fill="white" d="M-200 50 L-200 62.5" /><text font-size="5" fill="black" text-anchor="middle" transform="matrix(0,-1,1,0,-204,75)">6</text><path stroke-width="1" stroke-dasharray="1.5625,0.390625" stroke="black" fill="white" d="M-187.5 50 L-185 37.5 L-165 37.5 L-162.5 50" /><path stroke-width="1" stroke-dasharray="1.5625,0.390625" stroke="black" fill="white" d="M-200 50 L-187.5 50" /><path stroke-width="1" stroke-dasharray="1.5625,0.390625" stroke="black" fill="white" d="M-150 50 L-162.5 50" /><text font-size="5" fill="black" text-anchor="middle" transform="matrix(1,0,0,1,-175,46)">11</text><line x1="-100" y1="150" x2="-100" y2="100" stroke="turqoise" stroke-width="1" /><line x1="-100" y1="100" x2="-50" y2="100" stroke="magenta" stroke-width="1" /><line x1="-50" y1="100" x2="-50" y2="150" stroke="magenta" stroke-width="1" /><line x1="-150" y1="150" x2="-150" y2="100" stroke="magenta" stroke-width="1" /><line x1="0" y1="150" x2="-50" y2="150" stroke="magenta" stroke-width="1" /><line x1="-200" y1="100" x2="-150" y2="100" stroke="magenta" stroke-width="1" /></g></svg>