<svg xmlns="http://www.w3.org/2000/svg" xmlns:xlink="http://www.w3.org/1999/xlink" width="192" height="640"><g transform="translate(192,128)"><path stroke="purple" fill="purple" d="M-128 192 L-128 128 L-64 128 L-64 192 L-128 192" /><path stroke="purple" fill="purple" d="M-128 256 L-64 256 L-64 192 L-128 192 L-128 256" /><path stroke="purple" fill="purple" d="M-128 64 L-64 64 L-64 128 L-128 128 L-128 64" /><path stroke="purple" fill="purple" d="M-128 320 L-128 256 L-64 256 L-64 320 L-128 320" /><path stroke="purple" fill="purple" d="M-128 0 L-128 64 L-64 64 L-64 0 L-128 0" /><path stroke="purple" fill="purple" d="M-128 384 L-64 384 L-64 320 L-128 320 L-128 384" /><path stroke="purple" fill="purple" d="M-128 -64 L-64 -64 L-64 0 L-128 0 L-128 -64" /><path stroke="purple" fill="purple" d="M-128 384 L-128 448 L-64 448 L-64 384 L-128 384" /><path stroke-width="1" stroke-dasharray="2,0.5" stroke="black" fill="none" d="M-128 176 L-144 172.8 L-144 147.2 L-128 144" /><path stroke-width="1" stroke-dasharray="2,0.5" stroke="black" fill="none" d="M-128 192 L-128 176" /><path stroke-width="1" stroke-dasharray="2,0.5" stroke="black" fill="none" d="M-128 128 L-128 144" /><text font-size="6.4" fill="black" text-anchor="middle" transform="matrix(0,-1,1,0,-133.12,160)">15</text><path stroke-width="1" stroke-dasharray="2,0.5" stroke="black" fill="none" d="M-64 144 L-48 147.2 L-48 172.8 L-64 176" /><path stroke-width="1" stroke-dasharray="2,0.5" stroke="black" fill="none" d="M-64 128 L-64 144" /><path stroke-width="1" stroke-dasharray="2,0.5" stroke="black" fill="none" d="M-64 192 L-64 176" /><text font-size="6.4" fill="black" text-anchor="middle" transform="matrix(0,1,-1,0,-58.88,160)">7</text><path stroke-width="1" stroke-dasharray="2,0.5" stroke="black" fill="none" d="M-64 208 L-48 211.2 L-48 236.8 L-64 240" /><path stroke-width="1" stroke-dasharray="2,0.5" stroke="black" fill="none" d="M-64 192 L-64 208" /><path stroke-width="1" stroke-dasharray="2,0.5" stroke="black" fill="none" d="M-64 256 L-64 240" /><text font-size="6.4" fill="black" text-anchor="middle" transform="matrix(0,1,-1,0,-58.88,224)">6</text><path stroke-width="1" stroke-dasharray="2,0.5" stroke="black" fill="none" d="M-128 240 L-144 236.8 L-144 211.2 L-128 208" /><path stroke-width="1" stroke-dasharray="2,0.5" stroke="black" fill="none" d="M-128 256 L-128 240" /><path stroke-width="1" stroke-dasharray="2,0.5" stroke="black" fill="none" d="M-128 192 L-128 208" /><text font-size="6.4" fill="black" text-anchor="middle" transform="matrix(0,-1,1,0,-133.12,224)">16</text><path stroke-width="1" stroke-dasharray="2,0.5" stroke="black" fill="none" d="M-128 112 L-144 108.8 L-144 83.2 L-128 80" /><path stroke-width="1" stroke-dasharray="2,0.5" stroke="black" fill="none" d="M-128 128 L-128 112" /><path stroke-width="1" stroke-dasharray="2,0.5" stroke="black" fill="none" d="M-128 64 L-128 80" /><text font-size="6.4" fill="black" text-anchor="middle" transform="matrix(0,-1,1,0,-133.12,96)">22</text><path stroke-width="1" stroke-dasharray="2,0.5" stroke="black" fill="none" d="M-64 80 L-48 83.2 L-48 108.8 L-64 112" /><path stroke-width="1" stroke-dasharray="2,0.5" stroke="black" fill="none" d="M-64 64 L-64 80" /><path stroke-width="1" stroke-dasharray="2,0.5" stroke="black" fill="none" d="M-64 128 L-64 112" /><text font-size="6.4" fill="black" text-anchor="middle" transform="matrix(0,1,-1,0,-58.88,96)">0</text><path stroke-width="1" stroke-dasharray="2,0.5" stroke="black" fill="none" d="M-128 304 L-144 300.8 L-144 275.2 L-128 272" /><path stroke-width="1" stroke-dasharray="2,0.5" stroke="black" fill="none" d="M-128 320 L-128 304" /><path stroke-width="1" stroke-dasharray="2,0.5" stroke="black" fill="none" d="M-128 256 L-128 272" /><text font-size="6.4" fill="black" text-anchor="middle" transform="matrix(0,-1,1,0,-133.12,288)">17</text><path stroke-width="1" stroke-dasharray="2,0.5" stroke="black" fill="none" d="M-64 272 L-48 275.2 L-48 300.8 L-64 304" /><path stroke-width="1" stroke-dasharray="2,0.5" stroke="black" fill="none" d="M-64 256 L-64 272" /><path stroke-width="1" stroke-dasharray="2,0.5" stroke="black" fill="none" d="M-64 320 L-64 304" /><text font-size="6.4" fill="black" text-anchor="middle" transform="matrix(0,1,-1,0,-58.88,288)">5</text><path stroke-width="1" stroke-dasharray="2,0.5" stroke="black" fill="none" d="M-128 48 L-144 44.8 L-144 19.2 L-128 16" /><path stroke-width="1" stroke-dasharray="2,0.5" stroke="black" fill="none" d="M-128 64 L-128 48" /><path stroke-width="1" stroke-dasharray="2,0.5" stroke="black" fill="none" d="M-128 0 L-128 16" /><text font-size="6.4" fill="black" text-anchor="middle" transform="matrix(0,-1,1,0,-133.12,32)">21</text><path stroke-width="1" stroke-dasharray="2,0.5" stroke="black" fill="none" d="M-64 16 L-48 19.2 L-48 44.8 L-64 48" /><path stroke-width="1" stroke-dasharray="2,0.5" stroke="black" fill="none" d="M-64 0 L-64 16" /><path stroke-width="1" stroke-dasharray="2,0.5" stroke="black" fill="none" d="M-64 64 L-64 48" /><text font-size="6.4" fill="black" text-anchor="middle" transform="matrix(0,1,-1,0,-58.88,32)">1</text><path stroke-width="1" stroke-dasharray="2,0.5" stroke="black" fill="none" d="M-64 336 L-48 339.2 L-48 364.8 L-64 368" /><path stroke-width="1" stroke-dasharray="2,0.5" stroke="black" fill="none" d="M-64 320 L-64 336" /><path stroke-width="1" stroke-dasharray="2,0.5" stroke="black" fill="none" d="M-64 384 L-64 368" /><text font-size="6.4" fill="black" text-anchor="middle" transform="matrix(0,1,-1,0,-58.88,352)">4</text><path stroke-width="1" stroke-dasharray="2,0.5" stroke="black" fill="none" d="M-128 368 L-144 364.8 L-144 339.2 L-128 336" /><path stroke-width="1" stroke-dasharray="2,0.5" stroke="black" fill="none" d="M-128 384 L-128 368" /><path stroke-width="1" stroke-dasharray="2,0.5" stroke="black" fill="none" d="M-128 320 L-128 336" /><text font-size="6.4" fill="black" text-anchor="middle" transform="matrix(0,-1,1,0,-133.12,352)">18</text><path stroke-width="1" stroke-dasharray="2,0.5" stroke="black" fill="none" d="M-128 -16 L-144 -19.2 L-144 -44.8 L-128 -48" /><path stroke-width="1" stroke-dasharray="2,0.5" stroke="black" fill="none" d="M-128 0 L-128 -16" /><path stroke-width="1" stroke-dasharray="2,0.5" stroke="black" fill="none" d="M-128 -64 L-128 -48" /><text font-size="6.4" fill="black" text-anchor="middle" transform="matrix(0,-1,1,0,-133.12,-32)">20</text><path stroke-width="1" stroke-dasharray="2,0.5" stroke="black" fill="none" d="M-121.6 -64 L-113.6 -76.8 L-78.4 -76.8 L-70.4 -64" /><path stroke-width="1" stroke-dasharray="2,0.5" stroke="black" fill="none" d="M-115.2 -64 L-113.6 -67.2 L-78.4 -67.2 L-76.8 -64" /><path stroke-width="1" stroke-dasharray="2,0.5" stroke="black" fill="none" d="M-128 -64 L-121.6 -64" /><path stroke-width="1" stroke-dasharray="2,0.5" stroke="black" fill="none" d="M-64 -64 L-70.4 -64" /><text font-size="6.4" fill="black" text-anchor="middle" transform="matrix(1,0,0,1,-96,-69.12)">23</text><path stroke-width="1" stroke-dasharray="2,0.5" stroke="black" fill="none" d="M-64 -48 L-48 -44.8 L-48 -19.2 L-64 -16" /><path stroke-width="1" stroke-dasharray="2,0.5" stroke="black" fill="none" d="M-64 -64 L-64 -48" /><path stroke-width="1" stroke-dasharray="2,0.5" stroke="black" fill="none" d="M-64 0 L-64 -16" /><text font-size="6.4" fill="black" text-anchor="middle" transform="matrix(0,1,-1,0,-58.88,-32)">2</text><path stroke-width="1" stroke-dasharray="2,0.5" stroke="black" fill="none" d="M-80 448 L-83.2 464 L-108.8 464 L-112 448" /><path stroke-width="1" stroke-dasharray="2,0.5" stroke="black" fill="none" d="M-64 448 L-80 448" /><path stroke-width="1" stroke-dasharray="2,0.5" stroke="black" fill="none" d="M-128 448 L-112 448" /><text font-size="6.4" fill="black" text-anchor="middle" transform="matrix(-1,0,0,-1,-96,453.12)">23</text><path stroke-width="1" stroke-dasharray="2,0.5" stroke="black" fill="none" d="M-128 432 L-144 428.8 L-144 403.2 L-128 400" /><path stroke-width="1" stroke-dasharray="2,0.5" stroke="black" fill="none" d="M-128 448 L-128 432" /><path stroke-width="1" stroke-dasharray="2,0.5" stroke="black" fill="none" d="M-128 384 L-128 400" /><text font-size="6.4" fill="black" text-anchor="middle" transform="matrix(0,-1,1,0,-133.12,416)">19</text><path stroke-width="1" stroke-dasharray="2,0.5" stroke="black" fill="none" d="M-64 400 L-48 403.2 L-48 428.8 L-64 432" /><path stroke-width="1" stroke-dasharray="2,0.5" stroke="black" fill="none" d="M-64 384 L-64 400" /><path stroke-width="1" stroke-dasharray="2,0.5" stroke="black" fill="none" d="M-64 448 L-64 432" /><text font-size="6.4" fill="black" text-anchor="middle" transform="matrix(0,1,-1,0,-58.88,416)">3</text><line x1="-64" y1="192" x2="-128" y2="192" stroke="white" stroke-width="1" /><line x1="-128" y1="128" x2="-64" y2="128" stroke="white" stroke-width="1" /><line x1="-64" y1="256" x2="-128" y2="256" stroke="black" stroke-width="1" /><line x1="-128" y1="64" x2="-64" y2="64" stroke="white" stroke-width="1" /><line x1="-64" y1="320" x2="-128" y2="320" stroke="white" stroke-width="1" /><line x1="-128" y1="0" x2="-64" y2="0" stroke="black" stroke-width="1" /><line x1="-64" y1="384" x2="-128" y2="384" stroke="white" stroke-width="1" /></g></svg>