<svg xmlns="http://www.w3.org/2000/svg" xmlns:xlink="http://www.w3.org/1999/xlink" width="192" height="256"><g transform="translate(384,-64)"><path stroke="purple" fill="purple" d="M-320 256 L-320 192 L-256 192 L-256 256 L-320 256" /><path stroke-width="1" stroke="black" fill="none" d="M-256 192 L-256 256 L-320 256 L-320 192 L-256 192" /><path stroke="purple" fill="purple" d="M-320 128 L-256 128 L-256 192 L-320 192 L-320 128" /><path stroke-width="1" stroke="black" fill="none" d="M-256 192 L-320 192 L-320 128 L-256 128 L-256 192" /><path stroke-width="1" stroke-dasharray="2,0.5" stroke="black" fill="none" d="M-272 256 L-275.2 272 L-300.8 272 L-304 256" /><text font-size="6.4" fill="black" text-anchor="middle" transform="matrix(-1,0,0,-1,-288,261.12)">15</text><path stroke-width="1" stroke-dasharray="2,0.5" stroke="black" fill="none" d="M-320 240 L-336 236.8 L-336 211.2 L-320 208" /><text font-size="6.4" fill="black" text-anchor="middle" transform="matrix(0,-1,1,0,-325.12,224)">7</text><path stroke-width="1" stroke-dasharray="2,0.5" stroke="black" fill="none" d="M-256 208 L-240 211.2 L-240 236.8 L-256 240" /><text font-size="6.4" fill="black" text-anchor="middle" transform="matrix(0,1,-1,0,-250.88,224)">20</text><path stroke-width="1" stroke-dasharray="2,0.5" stroke="black" fill="none" d="M-320 176 L-336 172.8 L-336 147.2 L-320 144" /><text font-size="6.4" fill="black" text-anchor="middle" transform="matrix(0,-1,1,0,-325.12,160)">10</text><path stroke-width="1" stroke-dasharray="2,0.5" stroke="black" fill="none" d="M-304 128 L-300.8 112 L-275.2 112 L-272 128" /><text font-size="6.4" fill="black" text-anchor="middle" transform="matrix(1,0,0,1,-288,122.88)">13</text><path stroke-width="1" stroke-dasharray="2,0.5" stroke="black" fill="none" d="M-256 144 L-240 147.2 L-240 172.8 L-256 176" /><text font-size="6.4" fill="black" text-anchor="middle" transform="matrix(0,1,-1,0,-250.88,160)">21</text></g></svg>