<svg xmlns="http://www.w3.org/2000/svg" xmlns:xlink="http://www.w3.org/1999/xlink" width="1000" height="500"><g transform="translate(320,448)"><path stroke="blue" fill="blue" d="M-128 -128 L-128 -64 L-64 -64 L-64 -128 L-128 -128" /><path stroke="blue" fill="blue" d="M-128 -192 L-128 -128 L-64 -128 L-64 -192 L-128 -192" /><path stroke="blue" fill="blue" d="M-128 -256 L-128 -192 L-64 -192 L-64 -256 L-128 -256" /><path stroke="blue" fill="blue" d="M-128 -320 L-128 -256 L-64 -256 L-64 -320 L-128 -320" /><path stroke="blue" fill="blue" d="M-192 -128 L-128 -128 L-128 -64 L-192 -64 L-192 -128" /><path stroke="blue" fill="blue" d="M-192 -192 L-128 -192 L-128 -128 L-192 -128 L-192 -192" /><path stroke="blue" fill="blue" d="M-192 -256 L-128 -256 L-128 -192 L-192 -192 L-192 -256" /><path stroke="blue" fill="blue" d="M-192 -320 L-128 -320 L-128 -256 L-192 -256 L-192 -320" /><path stroke="blue" fill="blue" d="M-256 -320 L-192 -320 L-192 -256 L-256 -256 L-256 -320" /><path stroke="blue" fill="blue" d="M0 -128 L-64 -128 L-64 -64 L0 -64 L0 -128" /><path stroke="blue" fill="blue" d="M0 -192 L-64 -192 L-64 -128 L0 -128 L0 -192" /><path stroke="blue" fill="blue" d="M0 -256 L-64 -256 L-64 -192 L0 -192 L0 -256" /><path stroke="blue" fill="blue" d="M0 -320 L-64 -320 L-64 -256 L0 -256 L0 -320" /><path stroke="blue" fill="blue" d="M64 -128 L0 -128 L0 -64 L64 -64 L64 -128" /><path stroke="blue" fill="blue" d="M64 -192 L0 -192 L0 -128 L64 -128 L64 -192" /><path stroke="blue" fill="blue" d="M64 -256 L0 -256 L0 -192 L64 -192 L64 -256" /><path stroke="blue" fill="blue" d="M64 -320 L0 -320 L0 -256 L64 -256 L64 -320" /><path stroke="blue" fill="blue" d="M-192 -320 L-192 -384 L-128 -384 L-128 -320 L-192 -320" /><path stroke="blue" fill="blue" d="M-256 -320 L-256 -384 L-192 -384 L-192 -320 L-256 -320" /><path stroke="blue" fill="blue" d="M128 -128 L128 -64 L64 -64 L64 -128 L128 -128" /><path stroke="blue" fill="blue" d="M192 -128 L192 -64 L128 -64 L128 -128 L192 -128" /><path stroke="blue" fill="blue" d="M128 -192 L128 -128 L64 -128 L64 -192 L128 -192" /><path stroke="blue" fill="blue" d="M192 -192 L192 -128 L128 -128 L128 -192 L192 -192" /><path stroke="blue" fill="blue" d="M128 -256 L128 -192 L64 -192 L64 -256 L128 -256" /><path stroke="blue" fill="blue" d="M192 -256 L192 -192 L128 -192 L128 -256 L192 -256" /><path stroke="blue" fill="blue" d="M128 -320 L128 -256 L64 -256 L64 -320 L128 -320" /><path stroke="blue" fill="blue" d="M192 -128 L256 -128 L256 -64 L192 -64 L192 -128" /><path stroke="blue" fill="blue" d="M192 -192 L256 -192 L256 -128 L192 -128 L192 -192" /><path stroke="blue" fill="blue" d="M192 -256 L256 -256 L256 -192 L192 -192 L192 -256" /><path stroke="blue" fill="blue" d="M192 -256 L192 -320 L256 -320 L256 -256 L192 -256" /><path stroke="blue" fill="blue" d="M256 -128 L256 -64 L320 -64 L320 -128 L256 -128" /><path stroke="blue" fill="blue" d="M256 -192 L256 -128 L320 -128 L320 -192 L256 -192" /><path stroke="blue" fill="blue" d="M256 -256 L256 -192 L320 -192 L320 -256 L256 -256" /><path stroke-width="1" stroke-dasharray="2,0.5" stroke="black" fill="none" d="M-70.4 -64 L-78.4 -51.2 L-113.6 -51.2 L-121.6 -64" /><path stroke-width="1" stroke-dasharray="2,0.5" stroke="black" fill="none" d="M-76.8 -64 L-78.4 -60.8 L-113.6 -60.8 L-115.2 -64" /><path stroke-width="1" stroke-dasharray="2,0.5" stroke="black" fill="none" d="M-64 -64 L-70.4 -64" /><path stroke-width="1" stroke-dasharray="2,0.5" stroke="black" fill="none" d="M-128 -64 L-121.6 -64" /><text font-size="6.4" fill="black" text-anchor="middle" transform="matrix(-1,0,0,-1,-96,-58.88)">0</text><path stroke-width="1" stroke-dasharray="2,0.5" stroke="black" fill="none" d="M-121.6 -320 L-113.6 -332.8 L-78.4 -332.8 L-70.4 -320" /><path stroke-width="1" stroke-dasharray="2,0.5" stroke="black" fill="none" d="M-115.2 -320 L-113.6 -323.2 L-78.4 -323.2 L-76.8 -320" /><path stroke-width="1" stroke-dasharray="2,0.5" stroke="black" fill="none" d="M-128 -320 L-121.6 -320" /><path stroke-width="1" stroke-dasharray="2,0.5" stroke="black" fill="none" d="M-64 -320 L-70.4 -320" /><text font-size="6.4" fill="black" text-anchor="middle" transform="matrix(1,0,0,1,-96,-325.12)">1</text><path stroke-width="1" stroke-dasharray="2,0.5" stroke="black" fill="none" d="M-192 -70.4 L-204.8 -78.4 L-204.8 -241.6 L-192 -249.6" /><path stroke-width="1" stroke-dasharray="2,0.5" stroke="black" fill="none" d="M-192 -76.8 L-195.2 -78.4 L-195.2 -241.6 L-192 -243.2" /><path stroke-width="1" stroke-dasharray="2,0.5" stroke="black" fill="none" d="M-192 -64 L-192 -70.4" /><path stroke-width="1" stroke-dasharray="2,0.5" stroke="black" fill="none" d="M-192 -256 L-192 -249.6" /><text font-size="6.4" fill="black" text-anchor="middle" transform="matrix(0,-1,1,0,-197.12,-160)">2</text><path stroke-width="1" stroke-dasharray="2,0.5" stroke="black" fill="none" d="M-198.4 -256 L-206.4 -243.2 L-241.6 -243.2 L-249.6 -256" /><path stroke-width="1" stroke-dasharray="2,0.5" stroke="black" fill="none" d="M-204.8 -256 L-206.4 -252.8 L-241.6 -252.8 L-243.2 -256" /><path stroke-width="1" stroke-dasharray="2,0.5" stroke="black" fill="none" d="M-192 -256 L-198.4 -256" /><path stroke-width="1" stroke-dasharray="2,0.5" stroke="black" fill="none" d="M-256 -256 L-249.6 -256" /><text font-size="6.4" fill="black" text-anchor="middle" transform="matrix(-1,0,0,-1,-224,-250.88)">3</text><path stroke-width="1" stroke-dasharray="2,0.5" stroke="black" fill="none" d="M-256 -262.4 L-268.8 -270.4 L-268.8 -305.6 L-256 -313.6" /><path stroke-width="1" stroke-dasharray="2,0.5" stroke="black" fill="none" d="M-256 -268.8 L-259.2 -270.4 L-259.2 -305.6 L-256 -307.2" /><path stroke-width="1" stroke-dasharray="2,0.5" stroke="black" fill="none" d="M-256 -256 L-256 -262.4" /><path stroke-width="1" stroke-dasharray="2,0.5" stroke="black" fill="none" d="M-256 -320 L-256 -313.6" /><text font-size="6.4" fill="black" text-anchor="middle" transform="matrix(0,-1,1,0,-261.12,-288)">4</text><path stroke-width="1" stroke-dasharray="2,0.5" stroke="black" fill="none" d="M-134.4 -64 L-142.4 -51.2 L-177.6 -51.2 L-185.6 -64" /><path stroke-width="1" stroke-dasharray="2,0.5" stroke="black" fill="none" d="M-140.8 -64 L-142.4 -60.8 L-177.6 -60.8 L-179.2 -64" /><path stroke-width="1" stroke-dasharray="2,0.5" stroke="black" fill="none" d="M-128 -64 L-134.4 -64" /><path stroke-width="1" stroke-dasharray="2,0.5" stroke="black" fill="none" d="M-192 -64 L-185.6 -64" /><text font-size="6.4" fill="black" text-anchor="middle" transform="matrix(-1,0,0,-1,-160,-58.88)">5</text><path stroke-width="1" stroke-dasharray="2,0.5" stroke="black" fill="none" d="M-57.6 -320 L-49.6 -332.8 L49.6 -332.8 L57.6 -320" /><path stroke-width="1" stroke-dasharray="2,0.5" stroke="black" fill="none" d="M-51.2 -320 L-49.6 -323.2 L49.6 -323.2 L51.2 -320" /><path stroke-width="1" stroke-dasharray="2,0.5" stroke="black" fill="none" d="M-64 -320 L-57.6 -320" /><path stroke-width="1" stroke-dasharray="2,0.5" stroke="black" fill="none" d="M64 -320 L57.6 -320" /><text font-size="6.4" fill="black" text-anchor="middle" transform="matrix(1,0,0,1,0,-325.12)">6</text><path stroke-width="1" stroke-dasharray="2,0.5" stroke="black" fill="none" d="M57.6 -64 L49.6 -51.2 L-49.6 -51.2 L-57.6 -64" /><path stroke-width="1" stroke-dasharray="2,0.5" stroke="black" fill="none" d="M51.2 -64 L49.6 -60.8 L-49.6 -60.8 L-51.2 -64" /><path stroke-width="1" stroke-dasharray="2,0.5" stroke="black" fill="none" d="M64 -64 L57.6 -64" /><path stroke-width="1" stroke-dasharray="2,0.5" stroke="black" fill="none" d="M-64 -64 L-57.6 -64" /><text font-size="6.4" fill="black" text-anchor="middle" transform="matrix(-1,0,0,-1,0,-58.88)">7</text><path stroke-width="1" stroke-dasharray="2,0.5" stroke="black" fill="none" d="M-256 -326.4 L-268.8 -334.4 L-268.8 -369.6 L-256 -377.6" /><path stroke-width="1" stroke-dasharray="2,0.5" stroke="black" fill="none" d="M-256 -332.8 L-259.2 -334.4 L-259.2 -369.6 L-256 -371.2" /><path stroke-width="1" stroke-dasharray="2,0.5" stroke="black" fill="none" d="M-256 -320 L-256 -326.4" /><path stroke-width="1" stroke-dasharray="2,0.5" stroke="black" fill="none" d="M-256 -384 L-256 -377.6" /><text font-size="6.4" fill="black" text-anchor="middle" transform="matrix(0,-1,1,0,-261.12,-352)">8</text><path stroke-width="1" stroke-dasharray="2,0.5" stroke="black" fill="none" d="M-240 -384 L-236.8 -400 L-147.2 -400 L-144 -384" /><path stroke-width="1" stroke-dasharray="2,0.5" stroke="black" fill="none" d="M-256 -384 L-240 -384" /><path stroke-width="1" stroke-dasharray="2,0.5" stroke="black" fill="none" d="M-128 -384 L-144 -384" /><text font-size="6.4" fill="black" text-anchor="middle" transform="matrix(1,0,0,1,-192,-389.12)">6</text><path stroke-width="1" stroke-dasharray="2,0.5" stroke="black" fill="none" d="M-128 -368 L-112 -364.8 L-112 -339.2 L-128 -336" /><path stroke-width="1" stroke-dasharray="2,0.5" stroke="black" fill="none" d="M-128 -384 L-128 -368" /><path stroke-width="1" stroke-dasharray="2,0.5" stroke="black" fill="none" d="M-128 -320 L-128 -336" /><text font-size="6.4" fill="black" text-anchor="middle" transform="matrix(0,1,-1,0,-122.88,-352)">1</text><path stroke-width="1" stroke-dasharray="2,0.5" stroke="black" fill="none" d="M80 -320 L83.2 -336 L108.8 -336 L112 -320" /><path stroke-width="1" stroke-dasharray="2,0.5" stroke="black" fill="none" d="M64 -320 L80 -320" /><path stroke-width="1" stroke-dasharray="2,0.5" stroke="black" fill="none" d="M128 -320 L112 -320" /><text font-size="6.4" fill="black" text-anchor="middle" transform="matrix(1,0,0,1,96,-325.12)">8</text><path stroke-width="1" stroke-dasharray="2,0.5" stroke="black" fill="none" d="M128 -304 L144 -300.8 L144 -275.2 L128 -272" /><path stroke-width="1" stroke-dasharray="2,0.5" stroke="black" fill="none" d="M128 -320 L128 -304" /><path stroke-width="1" stroke-dasharray="2,0.5" stroke="black" fill="none" d="M128 -256 L128 -272" /><text font-size="6.4" fill="black" text-anchor="middle" transform="matrix(0,1,-1,0,133.12,-288)">4</text><path stroke-width="1" stroke-dasharray="2,0.5" stroke="black" fill="none" d="M134.4 -256 L142.4 -268.8 L177.6 -268.8 L185.6 -256" /><path stroke-width="1" stroke-dasharray="2,0.5" stroke="black" fill="none" d="M140.8 -256 L142.4 -259.2 L177.6 -259.2 L179.2 -256" /><path stroke-width="1" stroke-dasharray="2,0.5" stroke="black" fill="none" d="M128 -256 L134.4 -256" /><path stroke-width="1" stroke-dasharray="2,0.5" stroke="black" fill="none" d="M192 -256 L185.6 -256" /><text font-size="6.4" fill="black" text-anchor="middle" transform="matrix(1,0,0,1,160,-261.12)">9</text><path stroke-width="1" stroke-dasharray="2,0.5" stroke="black" fill="none" d="M185.6 -64 L177.6 -51.2 L78.4 -51.2 L70.4 -64" /><path stroke-width="1" stroke-dasharray="2,0.5" stroke="black" fill="none" d="M179.2 -64 L177.6 -60.8 L78.4 -60.8 L76.8 -64" /><path stroke-width="1" stroke-dasharray="2,0.5" stroke="black" fill="none" d="M192 -64 L185.6 -64" /><path stroke-width="1" stroke-dasharray="2,0.5" stroke="black" fill="none" d="M64 -64 L70.4 -64" /><text font-size="6.4" fill="black" text-anchor="middle" transform="matrix(-1,0,0,-1,128,-58.88)">10</text><path stroke-width="1" stroke-dasharray="2,0.5" stroke="black" fill="none" d="M249.6 -64 L241.6 -51.2 L206.4 -51.2 L198.4 -64" /><path stroke-width="1" stroke-dasharray="2,0.5" stroke="black" fill="none" d="M243.2 -64 L241.6 -60.8 L206.4 -60.8 L204.8 -64" /><path stroke-width="1" stroke-dasharray="2,0.5" stroke="black" fill="none" d="M256 -64 L249.6 -64" /><path stroke-width="1" stroke-dasharray="2,0.5" stroke="black" fill="none" d="M192 -64 L198.4 -64" /><text font-size="6.4" fill="black" text-anchor="middle" transform="matrix(-1,0,0,-1,224,-58.88)">11</text><path stroke-width="1" stroke-dasharray="2,0.5" stroke="black" fill="none" d="M192 -272 L176 -275.2 L176 -300.8 L192 -304" /><path stroke-width="1" stroke-dasharray="2,0.5" stroke="black" fill="none" d="M192 -256 L192 -272" /><path stroke-width="1" stroke-dasharray="2,0.5" stroke="black" fill="none" d="M192 -320 L192 -304" /><text font-size="6.4" fill="black" text-anchor="middle" transform="matrix(0,-1,1,0,186.88,-288)">9</text><path stroke-width="1" stroke-dasharray="2,0.5" stroke="black" fill="none" d="M208 -320 L211.2 -336 L236.8 -336 L240 -320" /><path stroke-width="1" stroke-dasharray="2,0.5" stroke="black" fill="none" d="M192 -320 L208 -320" /><path stroke-width="1" stroke-dasharray="2,0.5" stroke="black" fill="none" d="M256 -320 L240 -320" /><text font-size="6.4" fill="black" text-anchor="middle" transform="matrix(1,0,0,1,224,-325.12)">3</text><path stroke-width="1" stroke-dasharray="2,0.5" stroke="black" fill="none" d="M256 -313.6 L268.8 -305.6 L268.8 -270.4 L256 -262.4" /><path stroke-width="1" stroke-dasharray="2,0.5" stroke="black" fill="none" d="M256 -307.2 L259.2 -305.6 L259.2 -270.4 L256 -268.8" /><path stroke-width="1" stroke-dasharray="2,0.5" stroke="black" fill="none" d="M256 -320 L256 -313.6" /><path stroke-width="1" stroke-dasharray="2,0.5" stroke="black" fill="none" d="M256 -256 L256 -262.4" /><text font-size="6.4" fill="black" text-anchor="middle" transform="matrix(0,1,-1,0,261.12,-288)">12</text><path stroke-width="1" stroke-dasharray="2,0.5" stroke="black" fill="none" d="M313.6 -64 L305.6 -51.2 L270.4 -51.2 L262.4 -64" /><path stroke-width="1" stroke-dasharray="2,0.5" stroke="black" fill="none" d="M307.2 -64 L305.6 -60.8 L270.4 -60.8 L268.8 -64" /><path stroke-width="1" stroke-dasharray="2,0.5" stroke="black" fill="none" d="M320 -64 L313.6 -64" /><path stroke-width="1" stroke-dasharray="2,0.5" stroke="black" fill="none" d="M256 -64 L262.4 -64" /><text font-size="6.4" fill="black" text-anchor="middle" transform="matrix(-1,0,0,-1,288,-58.88)">13</text><path stroke-width="1" stroke-dasharray="2,0.5" stroke="black" fill="none" d="M272 -256 L275.2 -272 L300.8 -272 L304 -256" /><path stroke-width="1" stroke-dasharray="2,0.5" stroke="black" fill="none" d="M256 -256 L272 -256" /><path stroke-width="1" stroke-dasharray="2,0.5" stroke="black" fill="none" d="M320 -256 L304 -256" /><text font-size="6.4" fill="black" text-anchor="middle" transform="matrix(1,0,0,1,288,-261.12)">12</text><path stroke-width="1" stroke-dasharray="2,0.5" stroke="black" fill="none" d="M320 -240 L336 -236.8 L336 -83.2 L320 -80" /><path stroke-width="1" stroke-dasharray="2,0.5" stroke="black" fill="none" d="M320 -256 L320 -240" /><path stroke-width="1" stroke-dasharray="2,0.5" stroke="black" fill="none" d="M320 -64 L320 -80" /><text font-size="6.4" fill="black" text-anchor="middle" transform="matrix(0,1,-1,0,325.12,-160)">2</text><line x1="-128" y1="-64" x2="-128" y2="-320" stroke="black" stroke-width="1" /><line x1="-64" y1="-320" x2="-64" y2="-64" stroke="black" stroke-width="1" /><line x1="-256" y1="-320" x2="-128" y2="-320" stroke="black" stroke-width="1" /><line x1="64" y1="-320" x2="64" y2="-64" stroke="black" stroke-width="1" /><line x1="192" y1="-256" x2="192" y2="-64" stroke="black" stroke-width="1" /><line x1="192" y1="-256" x2="256" y2="-256" stroke="black" stroke-width="1" /><line x1="256" y1="-256" x2="256" y2="-64" stroke="black" stroke-width="1" /></g><g transform="translate(960,256)"><path stroke="blue" fill="blue" d="M-128 -128 L-128 -64 L-64 -64 L-64 -128 L-128 -128" /><path stroke="blue" fill="blue" d="M-192 -128 L-192 -64 L-128 -64 L-128 -128 L-192 -128" /><path stroke="blue" fill="blue" d="M-192 -192 L-192 -128 L-128 -128 L-128 -192 L-192 -192" /><path stroke-width="1" stroke-dasharray="2,0.5" stroke="black" fill="none" d="M-80 -64 L-83.2 -48 L-172.8 -48 L-176 -64" /><path stroke-width="1" stroke-dasharray="2,0.5" stroke="black" fill="none" d="M-64 -64 L-80 -64" /><path stroke-width="1" stroke-dasharray="2,0.5" stroke="black" fill="none" d="M-192 -64 L-176 -64" /><text font-size="6.4" fill="black" text-anchor="middle" transform="matrix(-1,0,0,-1,-128,-58.88)">7</text><path stroke-width="1" stroke-dasharray="2,0.5" stroke="black" fill="none" d="M-192 -80 L-208 -83.2 L-208 -172.8 L-192 -176" /><path stroke-width="1" stroke-dasharray="2,0.5" stroke="black" fill="none" d="M-192 -64 L-192 -80" /><path stroke-width="1" stroke-dasharray="2,0.5" stroke="black" fill="none" d="M-192 -192 L-192 -176" /><text font-size="6.4" fill="black" text-anchor="middle" transform="matrix(0,-1,1,0,-197.12,-128)">10</text><path stroke-width="1" stroke-dasharray="2,0.5" stroke="black" fill="none" d="M-176 -192 L-172.8 -208 L-147.2 -208 L-144 -192" /><path stroke-width="1" stroke-dasharray="2,0.5" stroke="black" fill="none" d="M-192 -192 L-176 -192" /><path stroke-width="1" stroke-dasharray="2,0.5" stroke="black" fill="none" d="M-128 -192 L-144 -192" /><text font-size="6.4" fill="black" text-anchor="middle" transform="matrix(1,0,0,1,-160,-197.12)">11</text><path stroke-width="1" stroke-dasharray="2,0.5" stroke="black" fill="none" d="M-128 -176 L-112 -172.8 L-112 -147.2 L-128 -144" /><path stroke-width="1" stroke-dasharray="2,0.5" stroke="black" fill="none" d="M-128 -192 L-128 -176" /><path stroke-width="1" stroke-dasharray="2,0.5" stroke="black" fill="none" d="M-128 -128 L-128 -144" /><text font-size="6.4" fill="black" text-anchor="middle" transform="matrix(0,1,-1,0,-122.88,-160)">13</text><path stroke-width="1" stroke-dasharray="2,0.5" stroke="black" fill="none" d="M-112 -128 L-108.8 -144 L-83.2 -144 L-80 -128" /><path stroke-width="1" stroke-dasharray="2,0.5" stroke="black" fill="none" d="M-128 -128 L-112 -128" /><path stroke-width="1" stroke-dasharray="2,0.5" stroke="black" fill="none" d="M-64 -128 L-80 -128" /><text font-size="6.4" fill="black" text-anchor="middle" transform="matrix(1,0,0,1,-96,-133.12)">5</text><path stroke-width="1" stroke-dasharray="2,0.5" stroke="black" fill="none" d="M-64 -112 L-48 -108.8 L-48 -83.2 L-64 -80" /><path stroke-width="1" stroke-dasharray="2,0.5" stroke="black" fill="none" d="M-64 -128 L-64 -112" /><path stroke-width="1" stroke-dasharray="2,0.5" stroke="black" fill="none" d="M-64 -64 L-64 -80" /><text font-size="6.4" fill="black" text-anchor="middle" transform="matrix(0,1,-1,0,-58.88,-96)">0</text></g></svg>