<svg xmlns="http://www.w3.org/2000/svg" xmlns:xlink="http://www.w3.org/1999/xlink" width="384" height="384"><g transform="translate(384,0)"><path stroke="purple" fill="purple" d="M-128 128 L-128 64 L-64 64 L-64 128 L-128 128" /><path stroke="purple" fill="purple" d="M-192 128 L-192 64 L-128 64 L-128 128 L-192 128" /><path stroke="purple" fill="purple" d="M-256 128 L-256 64 L-192 64 L-192 128 L-256 128" /><path stroke="purple" fill="purple" d="M-320 128 L-320 64 L-256 64 L-256 128 L-320 128" /><path stroke="purple" fill="purple" d="M-128 192 L-128 128 L-64 128 L-64 192 L-128 192" /><path stroke="purple" fill="purple" d="M-192 192 L-192 128 L-128 128 L-128 192 L-192 192" /><path stroke="purple" fill="purple" d="M-256 192 L-256 128 L-192 128 L-192 192 L-256 192" /><path stroke="purple" fill="purple" d="M-320 192 L-320 128 L-256 128 L-256 192 L-320 192" /><path stroke="purple" fill="purple" d="M-128 256 L-128 192 L-64 192 L-64 256 L-128 256" /><path stroke="purple" fill="purple" d="M-192 256 L-192 192 L-128 192 L-128 256 L-192 256" /><path stroke="purple" fill="purple" d="M-256 256 L-256 192 L-192 192 L-192 256 L-256 256" /><path stroke="purple" fill="purple" d="M-320 256 L-320 192 L-256 192 L-256 256 L-320 256" /><path stroke="purple" fill="purple" d="M-128 320 L-128 256 L-64 256 L-64 320 L-128 320" /><path stroke="purple" fill="purple" d="M-192 320 L-192 256 L-128 256 L-128 320 L-192 320" /><path stroke="purple" fill="purple" d="M-256 320 L-256 256 L-192 256 L-192 320 L-256 320" /><path stroke="purple" fill="purple" d="M-320 320 L-320 256 L-256 256 L-256 320 L-320 320" /><path stroke-width="1" stroke="black" fill="none" d="M-64 64 L-64 320 L-320 320 L-320 64 L-64 64" /><path stroke-width="1" stroke-dasharray="2,0.5" stroke="black" fill="none" d="M-70.4 320 L-78.4 332.8 L-305.6 332.8 L-313.6 320" /><path stroke-width="1" stroke-dasharray="2,0.5" stroke="black" fill="none" d="M-76.8 320 L-78.4 323.2 L-305.6 323.2 L-307.2 320" /><text font-size="6.4" fill="black" text-anchor="middle" transform="matrix(-1,0,0,-1,-192,325.12)">26</text><path stroke-width="1" stroke-dasharray="2,0.5" stroke="black" fill="none" d="M-320 304 L-336 300.8 L-336 83.2 L-320 80" /><text font-size="6.4" fill="black" text-anchor="middle" transform="matrix(0,-1,1,0,-325.12,192)">18</text><path stroke-width="1" stroke-dasharray="2,0.5" stroke="black" fill="none" d="M-313.6 64 L-305.6 51.2 L-78.4 51.2 L-70.4 64" /><path stroke-width="1" stroke-dasharray="2,0.5" stroke="black" fill="none" d="M-307.2 64 L-305.6 60.8 L-78.4 60.8 L-76.8 64" /><text font-size="6.4" fill="black" text-anchor="middle" transform="matrix(1,0,0,1,-192,58.88)">27</text><path stroke-width="1" stroke-dasharray="2,0.5" stroke="black" fill="none" d="M-64 80 L-48 83.2 L-48 300.8 L-64 304" /><text font-size="6.4" fill="black" text-anchor="middle" transform="matrix(0,1,-1,0,-58.88,192)">2</text></g></svg>