<svg xmlns="http://www.w3.org/2000/svg" xmlns:xlink="http://www.w3.org/1999/xlink" width="576" height="448"><g transform="translate(448,384)"><path stroke="red" fill="red" d="M-192 -192 L-192 -128 L-128 -128 L-128 -192 L-192 -192" /><path stroke="green" fill="green" d="M-256 -192 L-256 -128 L-192 -128 L-192 -192 L-256 -192" /><path stroke="blue" fill="blue" d="M-256 -256 L-256 -192 L-192 -192 L-192 -256 L-256 -256" /><path stroke-width="1" stroke="black" fill="none" d="M-128 -192 L-128 -128 L-256 -128 L-256 -256 L-192 -256 L-192 -192 L-128 -192" /><path stroke="blue" fill="blue" d="M-256 -320 L-192 -320 L-192 -256 L-256 -256 L-256 -320" /><path stroke-width="1" stroke="black" fill="none" d="M-192 -256 L-256 -256 L-256 -320 L-192 -320 L-192 -256" /><path stroke="red" fill="red" d="M-64 -192 L-128 -192 L-128 -128 L-64 -128 L-64 -192" /><path stroke-width="1" stroke="black" fill="none" d="M-64 -128 L-128 -128 L-128 -192 L-64 -192 L-64 -128" /><path stroke="green" fill="green" d="M-320 -320 L-320 -256 L-384 -256 L-384 -320 L-320 -320" /><path stroke="blue" fill="blue" d="M-256 -320 L-256 -256 L-320 -256 L-320 -320 L-256 -320" /><path stroke-width="1" stroke="black" fill="none" d="M-384 -256 L-384 -320 L-256 -320 L-256 -256 L-384 -256" /><path stroke="red" fill="red" d="M-64 -256 L-64 -192 L-128 -192 L-128 -256 L-64 -256" /><path stroke-width="1" stroke="black" fill="none" d="M-128 -192 L-128 -256 L-64 -256 L-64 -192 L-128 -192" /><path stroke="red" fill="red" d="M0 -192 L0 -128 L-64 -128 L-64 -192 L0 -192" /><path stroke="green" fill="green" d="M64 -192 L64 -128 L0 -128 L0 -192 L64 -192" /><path stroke="blue" fill="blue" d="M64 -256 L64 -192 L0 -192 L0 -256 L64 -256" /><path stroke-width="1" stroke="black" fill="none" d="M-64 -128 L-64 -192 L0 -192 L0 -256 L64 -256 L64 -128 L-64 -128" /><path stroke="red" fill="red" d="M-64 -64 L-64 -128 L-128 -128 L-128 -64 L-64 -64" /><path stroke="green" fill="green" d="M-64 0 L-64 -64 L-128 -64 L-128 0 L-64 0" /><path stroke-width="1" stroke="black" fill="none" d="M-128 0 L-128 -128 L-64 -128 L-64 0 L-128 0" /><path stroke="blue" fill="blue" d="M-64 -320 L-128 -320 L-128 -256 L-64 -256 L-64 -320" /><path stroke-width="1" stroke="black" fill="none" d="M-64 -256 L-128 -256 L-128 -320 L-64 -320 L-64 -256" /><path stroke-width="1" stroke-dasharray="2,0.5" stroke="black" fill="none" d="M-134.4 -128 L-140.8 -116.48 L-243.2 -116.48 L-249.6 -128" /><path stroke-width="1" stroke-dasharray="2,0.5" stroke="black" fill="none" d="M-140.8 -128 L-140.8 -123.2 L-243.2 -123.2 L-243.2 -128" /><text x="-192" y="-121.6" font-size="6.4" fill="black">0</text><path stroke-width="1" stroke-dasharray="2,0.5" stroke="black" fill="none" d="M-256 -134.4 L-267.52 -140.8 L-267.52 -243.2 L-256 -249.6" /><path stroke-width="1" stroke-dasharray="2,0.5" stroke="black" fill="none" d="M-256 -140.8 L-260.8 -140.8 L-260.8 -243.2 L-256 -243.2" /><text x="-262.4" y="-192" font-size="6.4" fill="black">1</text><path stroke-width="1" stroke-dasharray="2,0.5" stroke="black" fill="none" d="M-192 -249.6 L-180.48 -243.2 L-180.48 -204.8 L-192 -198.4" /><path stroke-width="1" stroke-dasharray="2,0.5" stroke="black" fill="none" d="M-192 -243.2 L-187.2 -243.2 L-187.2 -204.8 L-192 -204.8" /><text x="-185.6" y="-224" font-size="6.4" fill="black">2</text><path stroke-width="1" stroke-dasharray="2,0.5" stroke="black" fill="none" d="M-185.6 -192 L-179.2 -203.52 L-140.8 -203.52 L-134.4 -192" /><path stroke-width="1" stroke-dasharray="2,0.5" stroke="black" fill="none" d="M-179.2 -192 L-179.2 -196.8 L-140.8 -196.8 L-140.8 -192" /><text x="-160" y="-198.4" font-size="6.4" fill="black">3</text><path stroke-width="1" stroke-dasharray="2,0.5" stroke="black" fill="none" d="M-249.6 -320 L-243.2 -331.52 L-204.8 -331.52 L-198.4 -320" /><path stroke-width="1" stroke-dasharray="2,0.5" stroke="black" fill="none" d="M-243.2 -320 L-243.2 -324.8 L-204.8 -324.8 L-204.8 -320" /><text x="-224" y="-326.4" font-size="6.4" fill="black">4</text><path stroke-width="1" stroke-dasharray="2,0.5" stroke="black" fill="none" d="M-192 -313.6 L-180.48 -307.2 L-180.48 -268.8 L-192 -262.4" /><path stroke-width="1" stroke-dasharray="2,0.5" stroke="black" fill="none" d="M-192 -307.2 L-187.2 -307.2 L-187.2 -268.8 L-192 -268.8" /><text x="-185.6" y="-288" font-size="6.4" fill="black">5</text><path stroke-width="1" stroke-dasharray="2,0.5" stroke="black" fill="none" d="M-377.6 -320 L-371.2 -331.52 L-268.8 -331.52 L-262.4 -320" /><path stroke-width="1" stroke-dasharray="2,0.5" stroke="black" fill="none" d="M-371.2 -320 L-371.2 -324.8 L-268.8 -324.8 L-268.8 -320" /><text x="-320" y="-326.4" font-size="6.4" fill="black">6</text><path stroke-width="1" stroke-dasharray="2,0.5" stroke="black" fill="none" d="M-272 -256 L-272 -240 L-368 -240 L-368 -256" /><text x="-320" y="-249.6" font-size="6.4" fill="black">1</text><path stroke-width="1" stroke-dasharray="2,0.5" stroke="black" fill="none" d="M-384 -262.4 L-395.52 -268.8 L-395.52 -307.2 L-384 -313.6" /><path stroke-width="1" stroke-dasharray="2,0.5" stroke="black" fill="none" d="M-384 -268.8 L-388.8 -268.8 L-388.8 -307.2 L-384 -307.2" /><text x="-390.4" y="-288" font-size="6.4" fill="black">7</text><path stroke-width="1" stroke-dasharray="2,0.5" stroke="black" fill="none" d="M-64 -249.6 L-52.480000000000004 -243.2 L-52.480000000000004 -204.8 L-64 -198.4" /><path stroke-width="1" stroke-dasharray="2,0.5" stroke="black" fill="none" d="M-64 -243.2 L-59.2 -243.2 L-59.2 -204.8 L-64 -204.8" /><text x="-57.6" y="-224" font-size="6.4" fill="black">8</text><path stroke-width="1" stroke-dasharray="2,0.5" stroke="black" fill="none" d="M-128 -208 L-144 -208 L-144 -240 L-128 -240" /><text x="-134.4" y="-224" font-size="6.4" fill="black">3</text><path stroke-width="1" stroke-dasharray="2,0.5" stroke="black" fill="none" d="M-48 -192 L-48 -208 L-16 -208 L-16 -192" /><text x="-32" y="-198.4" font-size="6.4" fill="black">8</text><path stroke-width="1" stroke-dasharray="2,0.5" stroke="black" fill="none" d="M0 -198.4 L-11.52 -204.8 L-11.52 -243.2 L0 -249.6" /><path stroke-width="1" stroke-dasharray="2,0.5" stroke="black" fill="none" d="M0 -204.8 L-4.8 -204.8 L-4.8 -243.2 L0 -243.2" /><text x="-6.4" y="-224" font-size="6.4" fill="black">9</text><path stroke-width="1" stroke-dasharray="2,0.5" stroke="black" fill="none" d="M16 -256 L16 -272 L48 -272 L48 -256" /><text x="32" y="-262.4" font-size="6.4" fill="black">4</text><path stroke-width="1" stroke-dasharray="2,0.5" stroke="black" fill="none" d="M64 -240 L80 -240 L80 -144 L64 -144" /><text x="70.4" y="-192" font-size="6.4" fill="black">6</text><path stroke-width="1" stroke-dasharray="2,0.5" stroke="black" fill="none" d="M57.6 -128 L51.2 -116.48 L-51.2 -116.48 L-57.6 -128" /><path stroke-width="1" stroke-dasharray="2,0.5" stroke="black" fill="none" d="M51.2 -128 L51.2 -123.2 L-51.2 -123.2 L-51.2 -128" /><text x="0" y="-121.6" font-size="6.4" fill="black">10</text><path stroke-width="1" stroke-dasharray="2,0.5" stroke="black" fill="none" d="M-64 -112 L-48 -112 L-48 -16 L-64 -16" /><text x="-57.6" y="-64" font-size="6.4" fill="black">10</text><path stroke-width="1" stroke-dasharray="2,0.5" stroke="black" fill="none" d="M-80 0 L-80 16 L-112 16 L-112 0" /><text x="-96" y="6.4" font-size="6.4" fill="black">7</text><path stroke-width="1" stroke-dasharray="2,0.5" stroke="black" fill="none" d="M-128 -16 L-144 -16 L-144 -112 L-128 -112" /><text x="-134.4" y="-64" font-size="6.4" fill="black">0</text><path stroke-width="1" stroke-dasharray="2,0.5" stroke="black" fill="none" d="M-128 -272 L-144 -272 L-144 -304 L-128 -304" /><text x="-134.4" y="-288" font-size="6.4" fill="black">2</text><path stroke-width="1" stroke-dasharray="2,0.5" stroke="black" fill="none" d="M-112 -320 L-112 -336 L-80 -336 L-80 -320" /><text x="-96" y="-326.4" font-size="6.4" fill="black">5</text><path stroke-width="1" stroke-dasharray="2,0.5" stroke="black" fill="none" d="M-64 -304 L-48 -304 L-48 -272 L-64 -272" /><text x="-57.6" y="-288" font-size="6.4" fill="black">9</text></g></svg>