<svg xmlns="http://www.w3.org/2000/svg" xmlns:xlink="http://www.w3.org/1999/xlink" width="512" height="768"><g transform="translate(448,448)"><path stroke="purple" fill="purple" d="M-128 -128 L-128 -64 L-64 -64 L-64 -128 L-128 -128" /><path stroke="purple" fill="purple" d="M-192 -128 L-192 -64 L-128 -64 L-128 -128 L-192 -128" /><path stroke="purple" fill="purple" d="M-256 -128 L-256 -64 L-192 -64 L-192 -128 L-256 -128" /><path stroke="purple" fill="purple" d="M-320 -128 L-320 -64 L-256 -64 L-256 -128 L-320 -128" /><path stroke="purple" fill="purple" d="M-128 -192 L-128 -128 L-64 -128 L-64 -192 L-128 -192" /><path stroke="purple" fill="purple" d="M-256 -192 L-256 -128 L-192 -128 L-192 -192 L-256 -192" /><path stroke="purple" fill="purple" d="M-320 -192 L-320 -128 L-256 -128 L-256 -192 L-320 -192" /><path stroke="purple" fill="purple" d="M-128 -256 L-128 -192 L-64 -192 L-64 -256 L-128 -256" /><path stroke="purple" fill="purple" d="M-192 -256 L-192 -192 L-128 -192 L-128 -256 L-192 -256" /><path stroke="purple" fill="purple" d="M-320 -256 L-320 -192 L-256 -192 L-256 -256 L-320 -256" /><path stroke="purple" fill="purple" d="M-128 -320 L-128 -256 L-64 -256 L-64 -320 L-128 -320" /><path stroke="purple" fill="purple" d="M-192 -320 L-192 -256 L-128 -256 L-128 -320 L-192 -320" /><path stroke="purple" fill="purple" d="M-256 -320 L-256 -256 L-192 -256 L-192 -320 L-256 -320" /><path stroke="purple" fill="purple" d="M-320 -320 L-320 -256 L-256 -256 L-256 -320 L-320 -320" /><path stroke="purple" fill="purple" d="M-128 0 L-64 0 L-64 -64 L-128 -64 L-128 0" /><path stroke="purple" fill="purple" d="M-192 0 L-128 0 L-128 -64 L-192 -64 L-192 0" /><path stroke="purple" fill="purple" d="M-256 0 L-192 0 L-192 -64 L-256 -64 L-256 0" /><path stroke="purple" fill="purple" d="M-320 0 L-256 0 L-256 -64 L-320 -64 L-320 0" /><path stroke="purple" fill="purple" d="M-384 -128 L-320 -128 L-320 -64 L-384 -64 L-384 -128" /><path stroke="purple" fill="purple" d="M-384 -192 L-320 -192 L-320 -128 L-384 -128 L-384 -192" /><path stroke="purple" fill="purple" d="M-384 -256 L-320 -256 L-320 -192 L-384 -192 L-384 -256" /><path stroke="purple" fill="purple" d="M-384 -320 L-320 -320 L-320 -256 L-384 -256 L-384 -320" /><path stroke="purple" fill="purple" d="M-128 -384 L-64 -384 L-64 -320 L-128 -320 L-128 -384" /><path stroke="purple" fill="purple" d="M-192 -384 L-128 -384 L-128 -320 L-192 -320 L-192 -384" /><path stroke="purple" fill="purple" d="M-256 -384 L-192 -384 L-192 -320 L-256 -320 L-256 -384" /><path stroke="purple" fill="purple" d="M-320 -384 L-256 -384 L-256 -320 L-320 -320 L-320 -384" /><path stroke="purple" fill="purple" d="M0 -128 L-64 -128 L-64 -64 L0 -64 L0 -128" /><path stroke="purple" fill="purple" d="M0 -192 L-64 -192 L-64 -128 L0 -128 L0 -192" /><path stroke="purple" fill="purple" d="M0 -256 L-64 -256 L-64 -192 L0 -192 L0 -256" /><path stroke="purple" fill="purple" d="M0 -320 L-64 -320 L-64 -256 L0 -256 L0 -320" /><path stroke="purple" fill="purple" d="M-128 64 L-128 0 L-64 0 L-64 64 L-128 64" /><path stroke="purple" fill="purple" d="M-192 64 L-192 0 L-128 0 L-128 64 L-192 64" /><path stroke="purple" fill="purple" d="M-256 64 L-256 0 L-192 0 L-192 64 L-256 64" /><path stroke="purple" fill="purple" d="M-320 64 L-320 0 L-256 0 L-256 64 L-320 64" /><path stroke="purple" fill="purple" d="M-128 128 L-128 64 L-64 64 L-64 128 L-128 128" /><path stroke="purple" fill="purple" d="M-256 128 L-256 64 L-192 64 L-192 128 L-256 128" /><path stroke="purple" fill="purple" d="M-320 128 L-320 64 L-256 64 L-256 128 L-320 128" /><path stroke="purple" fill="purple" d="M-128 192 L-128 128 L-64 128 L-64 192 L-128 192" /><path stroke="purple" fill="purple" d="M-192 192 L-192 128 L-128 128 L-128 192 L-192 192" /><path stroke="purple" fill="purple" d="M-320 192 L-320 128 L-256 128 L-256 192 L-320 192" /><path stroke="purple" fill="purple" d="M-128 256 L-128 192 L-64 192 L-64 256 L-128 256" /><path stroke="purple" fill="purple" d="M-192 256 L-192 192 L-128 192 L-128 256 L-192 256" /><path stroke="purple" fill="purple" d="M-256 256 L-256 192 L-192 192 L-192 256 L-256 256" /><path stroke="purple" fill="purple" d="M-320 256 L-320 192 L-256 192 L-256 256 L-320 256" /><path stroke-width="1" stroke-dasharray="2,0.5" stroke="black" fill="none" d="M-128 -134.4 L-140.8 -142.4 L-140.8 -177.6 L-128 -185.6" /><path stroke-width="1" stroke-dasharray="2,0.5" stroke="black" fill="none" d="M-128 -140.8 L-131.2 -142.4 L-131.2 -177.6 L-128 -179.2" /><path stroke-width="1" stroke-dasharray="2,0.5" stroke="black" fill="none" d="M-128 -128 L-128 -134.4" /><path stroke-width="1" stroke-dasharray="2,0.5" stroke="black" fill="none" d="M-128 -192 L-128 -185.6" /><text font-size="6.4" fill="black" text-anchor="middle" transform="matrix(0,-1,1,0,-133.12,-160)">0</text><path stroke-width="1" stroke-dasharray="2,0.5" stroke="black" fill="none" d="M-134.4 -192 L-142.4 -179.2 L-177.6 -179.2 L-185.6 -192" /><path stroke-width="1" stroke-dasharray="2,0.5" stroke="black" fill="none" d="M-140.8 -192 L-142.4 -188.8 L-177.6 -188.8 L-179.2 -192" /><path stroke-width="1" stroke-dasharray="2,0.5" stroke="black" fill="none" d="M-128 -192 L-134.4 -192" /><path stroke-width="1" stroke-dasharray="2,0.5" stroke="black" fill="none" d="M-192 -192 L-185.6 -192" /><text font-size="6.4" fill="black" text-anchor="middle" transform="matrix(-1,0,0,-1,-160,-186.88)">1</text><path stroke-width="1" stroke-dasharray="2,0.5" stroke="black" fill="none" d="M-192 -198.4 L-204.8 -206.4 L-204.8 -241.6 L-192 -249.6" /><path stroke-width="1" stroke-dasharray="2,0.5" stroke="black" fill="none" d="M-192 -204.8 L-195.2 -206.4 L-195.2 -241.6 L-192 -243.2" /><path stroke-width="1" stroke-dasharray="2,0.5" stroke="black" fill="none" d="M-192 -192 L-192 -198.4" /><path stroke-width="1" stroke-dasharray="2,0.5" stroke="black" fill="none" d="M-192 -256 L-192 -249.6" /><text font-size="6.4" fill="black" text-anchor="middle" transform="matrix(0,-1,1,0,-197.12,-224)">2</text><path stroke-width="1" stroke-dasharray="2,0.5" stroke="black" fill="none" d="M-198.4 -256 L-206.4 -243.2 L-241.6 -243.2 L-249.6 -256" /><path stroke-width="1" stroke-dasharray="2,0.5" stroke="black" fill="none" d="M-204.8 -256 L-206.4 -252.8 L-241.6 -252.8 L-243.2 -256" /><path stroke-width="1" stroke-dasharray="2,0.5" stroke="black" fill="none" d="M-192 -256 L-198.4 -256" /><path stroke-width="1" stroke-dasharray="2,0.5" stroke="black" fill="none" d="M-256 -256 L-249.6 -256" /><text font-size="6.4" fill="black" text-anchor="middle" transform="matrix(-1,0,0,-1,-224,-250.88)">3</text><path stroke-width="1" stroke-dasharray="2,0.5" stroke="black" fill="none" d="M-256 -249.6 L-243.2 -241.6 L-243.2 -206.4 L-256 -198.4" /><path stroke-width="1" stroke-dasharray="2,0.5" stroke="black" fill="none" d="M-256 -243.2 L-252.8 -241.6 L-252.8 -206.4 L-256 -204.8" /><path stroke-width="1" stroke-dasharray="2,0.5" stroke="black" fill="none" d="M-256 -256 L-256 -249.6" /><path stroke-width="1" stroke-dasharray="2,0.5" stroke="black" fill="none" d="M-256 -192 L-256 -198.4" /><text font-size="6.4" fill="black" text-anchor="middle" transform="matrix(0,1,-1,0,-250.88,-224)">4</text><path stroke-width="1" stroke-dasharray="2,0.5" stroke="black" fill="none" d="M-249.6 -192 L-241.6 -204.8 L-206.4 -204.8 L-198.4 -192" /><path stroke-width="1" stroke-dasharray="2,0.5" stroke="black" fill="none" d="M-243.2 -192 L-241.6 -195.2 L-206.4 -195.2 L-204.8 -192" /><path stroke-width="1" stroke-dasharray="2,0.5" stroke="black" fill="none" d="M-256 -192 L-249.6 -192" /><path stroke-width="1" stroke-dasharray="2,0.5" stroke="black" fill="none" d="M-192 -192 L-198.4 -192" /><text font-size="6.4" fill="black" text-anchor="middle" transform="matrix(1,0,0,1,-224,-197.12)">5</text><path stroke-width="1" stroke-dasharray="2,0.5" stroke="black" fill="none" d="M-192 -185.6 L-179.2 -177.6 L-179.2 -142.4 L-192 -134.4" /><path stroke-width="1" stroke-dasharray="2,0.5" stroke="black" fill="none" d="M-192 -179.2 L-188.8 -177.6 L-188.8 -142.4 L-192 -140.8" /><path stroke-width="1" stroke-dasharray="2,0.5" stroke="black" fill="none" d="M-192 -192 L-192 -185.6" /><path stroke-width="1" stroke-dasharray="2,0.5" stroke="black" fill="none" d="M-192 -128 L-192 -134.4" /><text font-size="6.4" fill="black" text-anchor="middle" transform="matrix(0,1,-1,0,-186.88,-160)">6</text><path stroke-width="1" stroke-dasharray="2,0.5" stroke="black" fill="none" d="M-185.6 -128 L-177.6 -140.8 L-142.4 -140.8 L-134.4 -128" /><path stroke-width="1" stroke-dasharray="2,0.5" stroke="black" fill="none" d="M-179.2 -128 L-177.6 -131.2 L-142.4 -131.2 L-140.8 -128" /><path stroke-width="1" stroke-dasharray="2,0.5" stroke="black" fill="none" d="M-192 -128 L-185.6 -128" /><path stroke-width="1" stroke-dasharray="2,0.5" stroke="black" fill="none" d="M-128 -128 L-134.4 -128" /><text font-size="6.4" fill="black" text-anchor="middle" transform="matrix(1,0,0,1,-160,-133.12)">7</text><path stroke-width="1" stroke-dasharray="2,0.5" stroke="black" fill="none" d="M-64 -57.6 L-51.2 -49.6 L-51.2 -14.4 L-64 -6.4" /><path stroke-width="1" stroke-dasharray="2,0.5" stroke="black" fill="none" d="M-64 -51.2 L-60.8 -49.6 L-60.8 -14.4 L-64 -12.8" /><path stroke-width="1" stroke-dasharray="2,0.5" stroke="black" fill="none" d="M-64 -64 L-64 -57.6" /><path stroke-width="1" stroke-dasharray="2,0.5" stroke="black" fill="none" d="M-64 0 L-64 -6.4" /><text font-size="6.4" fill="black" text-anchor="middle" transform="matrix(0,1,-1,0,-58.88,-32)">8</text><path stroke-width="1" stroke-dasharray="2,0.5" stroke="black" fill="none" d="M-320 -6.4 L-332.8 -14.4 L-332.8 -49.6 L-320 -57.6" /><path stroke-width="1" stroke-dasharray="2,0.5" stroke="black" fill="none" d="M-320 -12.8 L-323.2 -14.4 L-323.2 -49.6 L-320 -51.2" /><path stroke-width="1" stroke-dasharray="2,0.5" stroke="black" fill="none" d="M-320 0 L-320 -6.4" /><path stroke-width="1" stroke-dasharray="2,0.5" stroke="black" fill="none" d="M-320 -64 L-320 -57.6" /><text font-size="6.4" fill="black" text-anchor="middle" transform="matrix(0,-1,1,0,-325.12,-32)">9</text><path stroke-width="1" stroke-dasharray="2,0.5" stroke="black" fill="none" d="M-384 -70.4 L-396.8 -78.4 L-396.8 -305.6 L-384 -313.6" /><path stroke-width="1" stroke-dasharray="2,0.5" stroke="black" fill="none" d="M-384 -76.8 L-387.2 -78.4 L-387.2 -305.6 L-384 -307.2" /><path stroke-width="1" stroke-dasharray="2,0.5" stroke="black" fill="none" d="M-384 -64 L-384 -70.4" /><path stroke-width="1" stroke-dasharray="2,0.5" stroke="black" fill="none" d="M-384 -320 L-384 -313.6" /><text font-size="6.4" fill="black" text-anchor="middle" transform="matrix(0,-1,1,0,-389.12,-192)">10</text><path stroke-width="1" stroke-dasharray="2,0.5" stroke="black" fill="none" d="M-377.6 -320 L-369.6 -332.8 L-334.4 -332.8 L-326.4 -320" /><path stroke-width="1" stroke-dasharray="2,0.5" stroke="black" fill="none" d="M-371.2 -320 L-369.6 -323.2 L-334.4 -323.2 L-332.8 -320" /><path stroke-width="1" stroke-dasharray="2,0.5" stroke="black" fill="none" d="M-384 -320 L-377.6 -320" /><path stroke-width="1" stroke-dasharray="2,0.5" stroke="black" fill="none" d="M-320 -320 L-326.4 -320" /><text font-size="6.4" fill="black" text-anchor="middle" transform="matrix(1,0,0,1,-352,-325.12)">11</text><path stroke-width="1" stroke-dasharray="2,0.5" stroke="black" fill="none" d="M-336 -64 L-339.2 -48 L-364.8 -48 L-368 -64" /><path stroke-width="1" stroke-dasharray="2,0.5" stroke="black" fill="none" d="M-320 -64 L-336 -64" /><path stroke-width="1" stroke-dasharray="2,0.5" stroke="black" fill="none" d="M-384 -64 L-368 -64" /><text font-size="6.4" fill="black" text-anchor="middle" transform="matrix(-1,0,0,-1,-352,-58.88)">9</text><path stroke-width="1" stroke-dasharray="2,0.5" stroke="black" fill="none" d="M-320 -336 L-336 -339.2 L-336 -364.8 L-320 -368" /><path stroke-width="1" stroke-dasharray="2,0.5" stroke="black" fill="none" d="M-320 -320 L-320 -336" /><path stroke-width="1" stroke-dasharray="2,0.5" stroke="black" fill="none" d="M-320 -384 L-320 -368" /><text font-size="6.4" fill="black" text-anchor="middle" transform="matrix(0,-1,1,0,-325.12,-352)">11</text><path stroke-width="1" stroke-dasharray="2,0.5" stroke="black" fill="none" d="M-313.6 -384 L-305.6 -396.8 L-78.4 -396.8 L-70.4 -384" /><path stroke-width="1" stroke-dasharray="2,0.5" stroke="black" fill="none" d="M-307.2 -384 L-305.6 -387.2 L-78.4 -387.2 L-76.8 -384" /><path stroke-width="1" stroke-dasharray="2,0.5" stroke="black" fill="none" d="M-320 -384 L-313.6 -384" /><path stroke-width="1" stroke-dasharray="2,0.5" stroke="black" fill="none" d="M-64 -384 L-70.4 -384" /><text font-size="6.4" fill="black" text-anchor="middle" transform="matrix(1,0,0,1,-192,-389.12)">12</text><path stroke-width="1" stroke-dasharray="2,0.5" stroke="black" fill="none" d="M-64 -377.6 L-51.2 -369.6 L-51.2 -334.4 L-64 -326.4" /><path stroke-width="1" stroke-dasharray="2,0.5" stroke="black" fill="none" d="M-64 -371.2 L-60.8 -369.6 L-60.8 -334.4 L-64 -332.8" /><path stroke-width="1" stroke-dasharray="2,0.5" stroke="black" fill="none" d="M-64 -384 L-64 -377.6" /><path stroke-width="1" stroke-dasharray="2,0.5" stroke="black" fill="none" d="M-64 -320 L-64 -326.4" /><text font-size="6.4" fill="black" text-anchor="middle" transform="matrix(0,1,-1,0,-58.88,-352)">13</text><path stroke-width="1" stroke-dasharray="2,0.5" stroke="black" fill="none" d="M-48 -320 L-44.8 -336 L-19.2 -336 L-16 -320" /><path stroke-width="1" stroke-dasharray="2,0.5" stroke="black" fill="none" d="M-64 -320 L-48 -320" /><path stroke-width="1" stroke-dasharray="2,0.5" stroke="black" fill="none" d="M0 -320 L-16 -320" /><text font-size="6.4" fill="black" text-anchor="middle" transform="matrix(1,0,0,1,-32,-325.12)">13</text><path stroke-width="1" stroke-dasharray="2,0.5" stroke="black" fill="none" d="M0 -313.6 L12.8 -305.6 L12.8 -78.4 L0 -70.4" /><path stroke-width="1" stroke-dasharray="2,0.5" stroke="black" fill="none" d="M0 -307.2 L3.2 -305.6 L3.2 -78.4 L0 -76.8" /><path stroke-width="1" stroke-dasharray="2,0.5" stroke="black" fill="none" d="M0 -320 L0 -313.6" /><path stroke-width="1" stroke-dasharray="2,0.5" stroke="black" fill="none" d="M0 -64 L0 -70.4" /><text font-size="6.4" fill="black" text-anchor="middle" transform="matrix(0,1,-1,0,5.12,-192)">14</text><path stroke-width="1" stroke-dasharray="2,0.5" stroke="black" fill="none" d="M-16 -64 L-19.2 -48 L-44.8 -48 L-48 -64" /><path stroke-width="1" stroke-dasharray="2,0.5" stroke="black" fill="none" d="M0 -64 L-16 -64" /><path stroke-width="1" stroke-dasharray="2,0.5" stroke="black" fill="none" d="M-64 -64 L-48 -64" /><text font-size="6.4" fill="black" text-anchor="middle" transform="matrix(-1,0,0,-1,-32,-58.88)">8</text><path stroke-width="1" stroke-dasharray="2,0.5" stroke="black" fill="none" d="M-80 256 L-83.2 272 L-300.8 272 L-304 256" /><path stroke-width="1" stroke-dasharray="2,0.5" stroke="black" fill="none" d="M-64 256 L-80 256" /><path stroke-width="1" stroke-dasharray="2,0.5" stroke="black" fill="none" d="M-320 256 L-304 256" /><text font-size="6.4" fill="black" text-anchor="middle" transform="matrix(-1,0,0,-1,-192,261.12)">12</text><path stroke-width="1" stroke-dasharray="2,0.5" stroke="black" fill="none" d="M-320 240 L-336 236.8 L-336 19.2 L-320 16" /><path stroke-width="1" stroke-dasharray="2,0.5" stroke="black" fill="none" d="M-320 256 L-320 240" /><path stroke-width="1" stroke-dasharray="2,0.5" stroke="black" fill="none" d="M-320 0 L-320 16" /><text font-size="6.4" fill="black" text-anchor="middle" transform="matrix(0,-1,1,0,-325.12,128)">10</text><path stroke-width="1" stroke-dasharray="2,0.5" stroke="black" fill="none" d="M-134.4 64 L-142.4 76.8 L-177.6 76.8 L-185.6 64" /><path stroke-width="1" stroke-dasharray="2,0.5" stroke="black" fill="none" d="M-140.8 64 L-142.4 67.2 L-177.6 67.2 L-179.2 64" /><path stroke-width="1" stroke-dasharray="2,0.5" stroke="black" fill="none" d="M-128 64 L-134.4 64" /><path stroke-width="1" stroke-dasharray="2,0.5" stroke="black" fill="none" d="M-192 64 L-185.6 64" /><text font-size="6.4" fill="black" text-anchor="middle" transform="matrix(-1,0,0,-1,-160,69.12)">15</text><path stroke-width="1" stroke-dasharray="2,0.5" stroke="black" fill="none" d="M-192 70.4 L-179.2 78.4 L-179.2 113.6 L-192 121.6" /><path stroke-width="1" stroke-dasharray="2,0.5" stroke="black" fill="none" d="M-192 76.8 L-188.8 78.4 L-188.8 113.6 L-192 115.2" /><path stroke-width="1" stroke-dasharray="2,0.5" stroke="black" fill="none" d="M-192 64 L-192 70.4" /><path stroke-width="1" stroke-dasharray="2,0.5" stroke="black" fill="none" d="M-192 128 L-192 121.6" /><text font-size="6.4" fill="black" text-anchor="middle" transform="matrix(0,1,-1,0,-186.88,96)">16</text><path stroke-width="1" stroke-dasharray="2,0.5" stroke="black" fill="none" d="M-198.4 128 L-206.4 140.8 L-241.6 140.8 L-249.6 128" /><path stroke-width="1" stroke-dasharray="2,0.5" stroke="black" fill="none" d="M-204.8 128 L-206.4 131.2 L-241.6 131.2 L-243.2 128" /><path stroke-width="1" stroke-dasharray="2,0.5" stroke="black" fill="none" d="M-192 128 L-198.4 128" /><path stroke-width="1" stroke-dasharray="2,0.5" stroke="black" fill="none" d="M-256 128 L-249.6 128" /><text font-size="6.4" fill="black" text-anchor="middle" transform="matrix(-1,0,0,-1,-224,133.12)">17</text><path stroke-width="1" stroke-dasharray="2,0.5" stroke="black" fill="none" d="M-256 134.4 L-243.2 142.4 L-243.2 177.6 L-256 185.6" /><path stroke-width="1" stroke-dasharray="2,0.5" stroke="black" fill="none" d="M-256 140.8 L-252.8 142.4 L-252.8 177.6 L-256 179.2" /><path stroke-width="1" stroke-dasharray="2,0.5" stroke="black" fill="none" d="M-256 128 L-256 134.4" /><path stroke-width="1" stroke-dasharray="2,0.5" stroke="black" fill="none" d="M-256 192 L-256 185.6" /><text font-size="6.4" fill="black" text-anchor="middle" transform="matrix(0,1,-1,0,-250.88,160)">18</text><path stroke-width="1" stroke-dasharray="2,0.5" stroke="black" fill="none" d="M-249.6 192 L-241.6 179.2 L-206.4 179.2 L-198.4 192" /><path stroke-width="1" stroke-dasharray="2,0.5" stroke="black" fill="none" d="M-243.2 192 L-241.6 188.8 L-206.4 188.8 L-204.8 192" /><path stroke-width="1" stroke-dasharray="2,0.5" stroke="black" fill="none" d="M-256 192 L-249.6 192" /><path stroke-width="1" stroke-dasharray="2,0.5" stroke="black" fill="none" d="M-192 192 L-198.4 192" /><text font-size="6.4" fill="black" text-anchor="middle" transform="matrix(1,0,0,1,-224,186.88)">19</text><path stroke-width="1" stroke-dasharray="2,0.5" stroke="black" fill="none" d="M-192 185.6 L-204.8 177.6 L-204.8 142.4 L-192 134.4" /><path stroke-width="1" stroke-dasharray="2,0.5" stroke="black" fill="none" d="M-192 179.2 L-195.2 177.6 L-195.2 142.4 L-192 140.8" /><path stroke-width="1" stroke-dasharray="2,0.5" stroke="black" fill="none" d="M-192 192 L-192 185.6" /><path stroke-width="1" stroke-dasharray="2,0.5" stroke="black" fill="none" d="M-192 128 L-192 134.4" /><text font-size="6.4" fill="black" text-anchor="middle" transform="matrix(0,-1,1,0,-197.12,160)">20</text><path stroke-width="1" stroke-dasharray="2,0.5" stroke="black" fill="none" d="M-185.6 128 L-177.6 115.2 L-142.4 115.2 L-134.4 128" /><path stroke-width="1" stroke-dasharray="2,0.5" stroke="black" fill="none" d="M-179.2 128 L-177.6 124.8 L-142.4 124.8 L-140.8 128" /><path stroke-width="1" stroke-dasharray="2,0.5" stroke="black" fill="none" d="M-192 128 L-185.6 128" /><path stroke-width="1" stroke-dasharray="2,0.5" stroke="black" fill="none" d="M-128 128 L-134.4 128" /><text font-size="6.4" fill="black" text-anchor="middle" transform="matrix(1,0,0,1,-160,122.88)">21</text><path stroke-width="1" stroke-dasharray="2,0.5" stroke="black" fill="none" d="M-128 121.6 L-140.8 113.6 L-140.8 78.4 L-128 70.4" /><path stroke-width="1" stroke-dasharray="2,0.5" stroke="black" fill="none" d="M-128 115.2 L-131.2 113.6 L-131.2 78.4 L-128 76.8" /><path stroke-width="1" stroke-dasharray="2,0.5" stroke="black" fill="none" d="M-128 128 L-128 121.6" /><path stroke-width="1" stroke-dasharray="2,0.5" stroke="black" fill="none" d="M-128 64 L-128 70.4" /><text font-size="6.4" fill="black" text-anchor="middle" transform="matrix(0,-1,1,0,-133.12,96)">22</text><path stroke-width="1" stroke-dasharray="2,0.5" stroke="black" fill="none" d="M-64 16 L-48 19.2 L-48 236.8 L-64 240" /><path stroke-width="1" stroke-dasharray="2,0.5" stroke="black" fill="none" d="M-64 0 L-64 16" /><path stroke-width="1" stroke-dasharray="2,0.5" stroke="black" fill="none" d="M-64 256 L-64 240" /><text font-size="6.4" fill="black" text-anchor="middle" transform="matrix(0,1,-1,0,-58.88,128)">14</text><line x1="-64" y1="-64" x2="-320" y2="-64" stroke="black" stroke-width="1" /><line x1="-320" y1="-64" x2="-320" y2="-320" stroke="black" stroke-width="1" /><line x1="-320" y1="-320" x2="-64" y2="-320" stroke="black" stroke-width="1" /><line x1="-64" y1="-320" x2="-64" y2="-64" stroke="black" stroke-width="1" /><line x1="-64" y1="0" x2="-320" y2="0" stroke="black" stroke-width="1" /></g></svg>