<svg xmlns="http://www.w3.org/2000/svg" xmlns:xlink="http://www.w3.org/1999/xlink" width="1000" height="500"><g transform="translate(192,384)"><path stroke="purple" fill="purple" d="M-128 -256 L-128 -192 L-64 -192 L-64 -256 L-128 -256" /><path stroke="purple" fill="purple" d="M-128 -192 L-64 -192 L-64 -128 L-128 -128 L-128 -192" /><path stroke="purple" fill="purple" d="M-128 -256 L-64 -256 L-64 -320 L-128 -320 L-128 -256" /><path stroke-width="1" stroke-dasharray="2,0.5" stroke="black" fill="none" d="M-128 -208 L-144 -211.2 L-144 -236.8 L-128 -240" /><path stroke-width="1" stroke-dasharray="2,0.5" stroke="black" fill="none" d="M-128 -192 L-128 -208" /><path stroke-width="1" stroke-dasharray="2,0.5" stroke="black" fill="none" d="M-128 -256 L-128 -240" /><text font-size="6.4" fill="black" text-anchor="middle" transform="matrix(0,-1,1,0,-133.12,-224)">20</text><path stroke-width="1" stroke-dasharray="2,0.5" stroke="black" fill="none" d="M-64 -240 L-48 -236.8 L-48 -211.2 L-64 -208" /><path stroke-width="1" stroke-dasharray="2,0.5" stroke="black" fill="none" d="M-64 -256 L-64 -240" /><path stroke-width="1" stroke-dasharray="2,0.5" stroke="black" fill="none" d="M-64 -192 L-64 -208" /><text font-size="6.4" fill="black" text-anchor="middle" transform="matrix(0,1,-1,0,-58.88,-224)">3</text><path stroke-width="1" stroke-dasharray="2,0.5" stroke="black" fill="none" d="M-128 -144 L-144 -147.2 L-144 -172.8 L-128 -176" /><path stroke-width="1" stroke-dasharray="2,0.5" stroke="black" fill="none" d="M-128 -128 L-128 -144" /><path stroke-width="1" stroke-dasharray="2,0.5" stroke="black" fill="none" d="M-128 -192 L-128 -176" /><text font-size="6.4" fill="black" text-anchor="middle" transform="matrix(0,-1,1,0,-133.12,-160)">21</text><path stroke-width="1" stroke-dasharray="2,0.5" stroke="black" fill="none" d="M-64 -176 L-48 -172.8 L-48 -147.2 L-64 -144" /><path stroke-width="1" stroke-dasharray="2,0.5" stroke="black" fill="none" d="M-64 -192 L-64 -176" /><path stroke-width="1" stroke-dasharray="2,0.5" stroke="black" fill="none" d="M-64 -128 L-64 -144" /><text font-size="6.4" fill="black" text-anchor="middle" transform="matrix(0,1,-1,0,-58.88,-160)">2</text><path stroke-width="1" stroke-dasharray="2,0.5" stroke="black" fill="none" d="M-80 -128 L-83.2 -112 L-108.8 -112 L-112 -128" /><path stroke-width="1" stroke-dasharray="2,0.5" stroke="black" fill="none" d="M-64 -128 L-80 -128" /><path stroke-width="1" stroke-dasharray="2,0.5" stroke="black" fill="none" d="M-128 -128 L-112 -128" /><text font-size="6.4" fill="black" text-anchor="middle" transform="matrix(-1,0,0,-1,-96,-122.88)">25</text><path stroke-width="1" stroke-dasharray="2,0.5" stroke="black" fill="none" d="M-64 -304 L-48 -300.8 L-48 -275.2 L-64 -272" /><path stroke-width="1" stroke-dasharray="2,0.5" stroke="black" fill="none" d="M-64 -320 L-64 -304" /><path stroke-width="1" stroke-dasharray="2,0.5" stroke="black" fill="none" d="M-64 -256 L-64 -272" /><text font-size="6.4" fill="black" text-anchor="middle" transform="matrix(0,1,-1,0,-58.88,-288)">4</text><path stroke-width="1" stroke-dasharray="2,0.5" stroke="black" fill="none" d="M-128 -272 L-144 -275.2 L-144 -300.8 L-128 -304" /><path stroke-width="1" stroke-dasharray="2,0.5" stroke="black" fill="none" d="M-128 -256 L-128 -272" /><path stroke-width="1" stroke-dasharray="2,0.5" stroke="black" fill="none" d="M-128 -320 L-128 -304" /><text font-size="6.4" fill="black" text-anchor="middle" transform="matrix(0,-1,1,0,-133.12,-288)">19</text><path stroke-width="1" stroke-dasharray="2,0.5" stroke="black" fill="none" d="M-112 -320 L-108.8 -336 L-83.2 -336 L-80 -320" /><path stroke-width="1" stroke-dasharray="2,0.5" stroke="black" fill="none" d="M-128 -320 L-112 -320" /><path stroke-width="1" stroke-dasharray="2,0.5" stroke="black" fill="none" d="M-64 -320 L-80 -320" /><text font-size="6.4" fill="black" text-anchor="middle" transform="matrix(1,0,0,1,-96,-325.12)">24</text><line x1="-64" y1="-192" x2="-128" y2="-192" stroke="white" stroke-width="1" /><line x1="-128" y1="-256" x2="-64" y2="-256" stroke="white" stroke-width="1" /></g><g transform="translate(384,0)"><path stroke="purple" fill="purple" d="M-128 128 L-128 64 L-64 64 L-64 128 L-128 128" /><path stroke="purple" fill="purple" d="M-128 192 L-128 128 L-64 128 L-64 192 L-128 192" /><path stroke="purple" fill="purple" d="M-128 256 L-128 192 L-64 192 L-64 256 L-128 256" /><path stroke="purple" fill="purple" d="M-128 320 L-128 256 L-64 256 L-64 320 L-128 320" /><path stroke-width="1" stroke-dasharray="2,0.5" stroke="black" fill="none" d="M-80 320 L-83.2 336 L-108.8 336 L-112 320" /><path stroke-width="1" stroke-dasharray="2,0.5" stroke="black" fill="none" d="M-64 320 L-80 320" /><path stroke-width="1" stroke-dasharray="2,0.5" stroke="black" fill="none" d="M-128 320 L-112 320" /><text font-size="6.4" fill="black" text-anchor="middle" transform="matrix(-1,0,0,-1,-96,325.12)">12</text><path stroke-width="1" stroke-dasharray="2,0.5" stroke="black" fill="none" d="M-128 304 L-144 300.8 L-144 83.2 L-128 80" /><path stroke-width="1" stroke-dasharray="2,0.5" stroke="black" fill="none" d="M-128 320 L-128 304" /><path stroke-width="1" stroke-dasharray="2,0.5" stroke="black" fill="none" d="M-128 64 L-128 80" /><text font-size="6.4" fill="black" text-anchor="middle" transform="matrix(0,-1,1,0,-133.12,192)">15</text><path stroke-width="1" stroke-dasharray="2,0.5" stroke="black" fill="none" d="M-112 64 L-108.8 48 L-83.2 48 L-80 64" /><path stroke-width="1" stroke-dasharray="2,0.5" stroke="black" fill="none" d="M-128 64 L-112 64" /><path stroke-width="1" stroke-dasharray="2,0.5" stroke="black" fill="none" d="M-64 64 L-80 64" /><text font-size="6.4" fill="black" text-anchor="middle" transform="matrix(1,0,0,1,-96,58.88)">13</text><path stroke-width="1" stroke-dasharray="2,0.5" stroke="black" fill="none" d="M-64 80 L-48 83.2 L-48 300.8 L-64 304" /><path stroke-width="1" stroke-dasharray="2,0.5" stroke="black" fill="none" d="M-64 64 L-64 80" /><path stroke-width="1" stroke-dasharray="2,0.5" stroke="black" fill="none" d="M-64 320 L-64 304" /><text font-size="6.4" fill="black" text-anchor="middle" transform="matrix(0,1,-1,0,-58.88,192)">8</text></g></svg>