<svg xmlns="http://www.w3.org/2000/svg" xmlns:xlink="http://www.w3.org/1999/xlink" width="1000" height="500"><g transform="translate(704,384)"><path stroke="purple" fill="purple" d="M-128 -128 L-128 -64 L-64 -64 L-64 -128 L-128 -128" /><path stroke="purple" fill="purple" d="M-192 -128 L-192 -64 L-128 -64 L-128 -128 L-192 -128" /><path stroke="purple" fill="purple" d="M-256 -128 L-256 -64 L-192 -64 L-192 -128 L-256 -128" /><path stroke="purple" fill="purple" d="M-320 -128 L-320 -64 L-256 -64 L-256 -128 L-320 -128" /><path stroke="purple" fill="purple" d="M-128 -192 L-128 -128 L-64 -128 L-64 -192 L-128 -192" /><path stroke="purple" fill="purple" d="M-256 -192 L-256 -128 L-192 -128 L-192 -192 L-256 -192" /><path stroke="purple" fill="purple" d="M-320 -192 L-320 -128 L-256 -128 L-256 -192 L-320 -192" /><path stroke="purple" fill="purple" d="M-128 -256 L-128 -192 L-64 -192 L-64 -256 L-128 -256" /><path stroke="purple" fill="purple" d="M-192 -256 L-192 -192 L-128 -192 L-128 -256 L-192 -256" /><path stroke="purple" fill="purple" d="M-320 -256 L-320 -192 L-256 -192 L-256 -256 L-320 -256" /><path stroke="purple" fill="purple" d="M-128 -320 L-128 -256 L-64 -256 L-64 -320 L-128 -320" /><path stroke="purple" fill="purple" d="M-192 -320 L-192 -256 L-128 -256 L-128 -320 L-192 -320" /><path stroke="purple" fill="purple" d="M-256 -320 L-256 -256 L-192 -256 L-192 -320 L-256 -320" /><path stroke="purple" fill="purple" d="M-320 -320 L-320 -256 L-256 -256 L-256 -320 L-320 -320" /><path stroke="purple" fill="purple" d="M-128 0 L-64 0 L-64 -64 L-128 -64 L-128 0" /><path stroke="purple" fill="purple" d="M-192 0 L-128 0 L-128 -64 L-192 -64 L-192 0" /><path stroke="purple" fill="purple" d="M-256 0 L-192 0 L-192 -64 L-256 -64 L-256 0" /><path stroke="purple" fill="purple" d="M-320 0 L-256 0 L-256 -64 L-320 -64 L-320 0" /><path stroke="purple" fill="purple" d="M-384 -128 L-320 -128 L-320 -64 L-384 -64 L-384 -128" /><path stroke="purple" fill="purple" d="M-384 -192 L-320 -192 L-320 -128 L-384 -128 L-384 -192" /><path stroke="purple" fill="purple" d="M-384 -256 L-320 -256 L-320 -192 L-384 -192 L-384 -256" /><path stroke="purple" fill="purple" d="M-384 -320 L-320 -320 L-320 -256 L-384 -256 L-384 -320" /><path stroke="purple" fill="purple" d="M0 -128 L-64 -128 L-64 -64 L0 -64 L0 -128" /><path stroke="purple" fill="purple" d="M0 -192 L-64 -192 L-64 -128 L0 -128 L0 -192" /><path stroke="purple" fill="purple" d="M0 -256 L-64 -256 L-64 -192 L0 -192 L0 -256" /><path stroke="purple" fill="purple" d="M0 -320 L-64 -320 L-64 -256 L0 -256 L0 -320" /><path stroke="purple" fill="purple" d="M-576 -128 L-576 -64 L-640 -64 L-640 -128 L-576 -128" /><path stroke="purple" fill="purple" d="M-512 -128 L-512 -64 L-576 -64 L-576 -128 L-512 -128" /><path stroke="purple" fill="purple" d="M-448 -128 L-448 -64 L-512 -64 L-512 -128 L-448 -128" /><path stroke="purple" fill="purple" d="M-384 -128 L-384 -64 L-448 -64 L-448 -128 L-384 -128" /><path stroke="purple" fill="purple" d="M-576 -192 L-576 -128 L-640 -128 L-640 -192 L-576 -192" /><path stroke="purple" fill="purple" d="M-448 -192 L-448 -128 L-512 -128 L-512 -192 L-448 -192" /><path stroke="purple" fill="purple" d="M-384 -192 L-384 -128 L-448 -128 L-448 -192 L-384 -192" /><path stroke="purple" fill="purple" d="M-576 -256 L-576 -192 L-640 -192 L-640 -256 L-576 -256" /><path stroke="purple" fill="purple" d="M-512 -256 L-512 -192 L-576 -192 L-576 -256 L-512 -256" /><path stroke="purple" fill="purple" d="M-384 -256 L-384 -192 L-448 -192 L-448 -256 L-384 -256" /><path stroke="purple" fill="purple" d="M-576 -320 L-576 -256 L-640 -256 L-640 -320 L-576 -320" /><path stroke="purple" fill="purple" d="M-512 -320 L-512 -256 L-576 -256 L-576 -320 L-512 -320" /><path stroke="purple" fill="purple" d="M-448 -320 L-448 -256 L-512 -256 L-512 -320 L-448 -320" /><path stroke="purple" fill="purple" d="M-384 -320 L-384 -256 L-448 -256 L-448 -320 L-384 -320" /><path stroke-width="1" stroke-dasharray="2,0.5" stroke="black" fill="none" d="M-128 -134.4 L-140.8 -142.4 L-140.8 -177.6 L-128 -185.6" /><path stroke-width="1" stroke-dasharray="2,0.5" stroke="black" fill="none" d="M-128 -140.8 L-131.2 -142.4 L-131.2 -177.6 L-128 -179.2" /><path stroke-width="1" stroke-dasharray="2,0.5" stroke="black" fill="none" d="M-128 -128 L-128 -134.4" /><path stroke-width="1" stroke-dasharray="2,0.5" stroke="black" fill="none" d="M-128 -192 L-128 -185.6" /><text font-size="6.4" fill="black" text-anchor="middle" transform="matrix(0,-1,1,0,-133.12,-160)">0</text><path stroke-width="1" stroke-dasharray="2,0.5" stroke="black" fill="none" d="M-134.4 -192 L-142.4 -179.2 L-177.6 -179.2 L-185.6 -192" /><path stroke-width="1" stroke-dasharray="2,0.5" stroke="black" fill="none" d="M-140.8 -192 L-142.4 -188.8 L-177.6 -188.8 L-179.2 -192" /><path stroke-width="1" stroke-dasharray="2,0.5" stroke="black" fill="none" d="M-128 -192 L-134.4 -192" /><path stroke-width="1" stroke-dasharray="2,0.5" stroke="black" fill="none" d="M-192 -192 L-185.6 -192" /><text font-size="6.4" fill="black" text-anchor="middle" transform="matrix(-1,0,0,-1,-160,-186.88)">1</text><path stroke-width="1" stroke-dasharray="2,0.5" stroke="black" fill="none" d="M-192 -198.4 L-204.8 -206.4 L-204.8 -241.6 L-192 -249.6" /><path stroke-width="1" stroke-dasharray="2,0.5" stroke="black" fill="none" d="M-192 -204.8 L-195.2 -206.4 L-195.2 -241.6 L-192 -243.2" /><path stroke-width="1" stroke-dasharray="2,0.5" stroke="black" fill="none" d="M-192 -192 L-192 -198.4" /><path stroke-width="1" stroke-dasharray="2,0.5" stroke="black" fill="none" d="M-192 -256 L-192 -249.6" /><text font-size="6.4" fill="black" text-anchor="middle" transform="matrix(0,-1,1,0,-197.12,-224)">2</text><path stroke-width="1" stroke-dasharray="2,0.5" stroke="black" fill="none" d="M-198.4 -256 L-206.4 -243.2 L-241.6 -243.2 L-249.6 -256" /><path stroke-width="1" stroke-dasharray="2,0.5" stroke="black" fill="none" d="M-204.8 -256 L-206.4 -252.8 L-241.6 -252.8 L-243.2 -256" /><path stroke-width="1" stroke-dasharray="2,0.5" stroke="black" fill="none" d="M-192 -256 L-198.4 -256" /><path stroke-width="1" stroke-dasharray="2,0.5" stroke="black" fill="none" d="M-256 -256 L-249.6 -256" /><text font-size="6.4" fill="black" text-anchor="middle" transform="matrix(-1,0,0,-1,-224,-250.88)">3</text><path stroke-width="1" stroke-dasharray="2,0.5" stroke="black" fill="none" d="M-256 -249.6 L-243.2 -241.6 L-243.2 -206.4 L-256 -198.4" /><path stroke-width="1" stroke-dasharray="2,0.5" stroke="black" fill="none" d="M-256 -243.2 L-252.8 -241.6 L-252.8 -206.4 L-256 -204.8" /><path stroke-width="1" stroke-dasharray="2,0.5" stroke="black" fill="none" d="M-256 -256 L-256 -249.6" /><path stroke-width="1" stroke-dasharray="2,0.5" stroke="black" fill="none" d="M-256 -192 L-256 -198.4" /><text font-size="6.4" fill="black" text-anchor="middle" transform="matrix(0,1,-1,0,-250.88,-224)">4</text><path stroke-width="1" stroke-dasharray="2,0.5" stroke="black" fill="none" d="M-249.6 -192 L-241.6 -204.8 L-206.4 -204.8 L-198.4 -192" /><path stroke-width="1" stroke-dasharray="2,0.5" stroke="black" fill="none" d="M-243.2 -192 L-241.6 -195.2 L-206.4 -195.2 L-204.8 -192" /><path stroke-width="1" stroke-dasharray="2,0.5" stroke="black" fill="none" d="M-256 -192 L-249.6 -192" /><path stroke-width="1" stroke-dasharray="2,0.5" stroke="black" fill="none" d="M-192 -192 L-198.4 -192" /><text font-size="6.4" fill="black" text-anchor="middle" transform="matrix(1,0,0,1,-224,-197.12)">5</text><path stroke-width="1" stroke-dasharray="2,0.5" stroke="black" fill="none" d="M-192 -185.6 L-179.2 -177.6 L-179.2 -142.4 L-192 -134.4" /><path stroke-width="1" stroke-dasharray="2,0.5" stroke="black" fill="none" d="M-192 -179.2 L-188.8 -177.6 L-188.8 -142.4 L-192 -140.8" /><path stroke-width="1" stroke-dasharray="2,0.5" stroke="black" fill="none" d="M-192 -192 L-192 -185.6" /><path stroke-width="1" stroke-dasharray="2,0.5" stroke="black" fill="none" d="M-192 -128 L-192 -134.4" /><text font-size="6.4" fill="black" text-anchor="middle" transform="matrix(0,1,-1,0,-186.88,-160)">6</text><path stroke-width="1" stroke-dasharray="2,0.5" stroke="black" fill="none" d="M-185.6 -128 L-177.6 -140.8 L-142.4 -140.8 L-134.4 -128" /><path stroke-width="1" stroke-dasharray="2,0.5" stroke="black" fill="none" d="M-179.2 -128 L-177.6 -131.2 L-142.4 -131.2 L-140.8 -128" /><path stroke-width="1" stroke-dasharray="2,0.5" stroke="black" fill="none" d="M-192 -128 L-185.6 -128" /><path stroke-width="1" stroke-dasharray="2,0.5" stroke="black" fill="none" d="M-128 -128 L-134.4 -128" /><text font-size="6.4" fill="black" text-anchor="middle" transform="matrix(1,0,0,1,-160,-133.12)">7</text><path stroke-width="1" stroke-dasharray="2,0.5" stroke="black" fill="none" d="M-313.6 -320 L-305.6 -332.8 L-78.4 -332.8 L-70.4 -320" /><path stroke-width="1" stroke-dasharray="2,0.5" stroke="black" fill="none" d="M-307.2 -320 L-305.6 -323.2 L-78.4 -323.2 L-76.8 -320" /><path stroke-width="1" stroke-dasharray="2,0.5" stroke="black" fill="none" d="M-320 -320 L-313.6 -320" /><path stroke-width="1" stroke-dasharray="2,0.5" stroke="black" fill="none" d="M-64 -320 L-70.4 -320" /><text font-size="6.4" fill="black" text-anchor="middle" transform="matrix(1,0,0,1,-192,-325.12)">8</text><path stroke-width="1" stroke-dasharray="2,0.5" stroke="black" fill="none" d="M-64 -57.6 L-51.2 -49.6 L-51.2 -14.4 L-64 -6.4" /><path stroke-width="1" stroke-dasharray="2,0.5" stroke="black" fill="none" d="M-64 -51.2 L-60.8 -49.6 L-60.8 -14.4 L-64 -12.8" /><path stroke-width="1" stroke-dasharray="2,0.5" stroke="black" fill="none" d="M-64 -64 L-64 -57.6" /><path stroke-width="1" stroke-dasharray="2,0.5" stroke="black" fill="none" d="M-64 0 L-64 -6.4" /><text font-size="6.4" fill="black" text-anchor="middle" transform="matrix(0,1,-1,0,-58.88,-32)">9</text><path stroke-width="1" stroke-dasharray="2,0.5" stroke="black" fill="none" d="M-70.4 0 L-78.4 12.8 L-305.6 12.8 L-313.6 0" /><path stroke-width="1" stroke-dasharray="2,0.5" stroke="black" fill="none" d="M-76.8 0 L-78.4 3.2 L-305.6 3.2 L-307.2 0" /><path stroke-width="1" stroke-dasharray="2,0.5" stroke="black" fill="none" d="M-64 0 L-70.4 0" /><path stroke-width="1" stroke-dasharray="2,0.5" stroke="black" fill="none" d="M-320 0 L-313.6 0" /><text font-size="6.4" fill="black" text-anchor="middle" transform="matrix(-1,0,0,-1,-192,5.12)">10</text><path stroke-width="1" stroke-dasharray="2,0.5" stroke="black" fill="none" d="M-320 -6.4 L-332.8 -14.4 L-332.8 -49.6 L-320 -57.6" /><path stroke-width="1" stroke-dasharray="2,0.5" stroke="black" fill="none" d="M-320 -12.8 L-323.2 -14.4 L-323.2 -49.6 L-320 -51.2" /><path stroke-width="1" stroke-dasharray="2,0.5" stroke="black" fill="none" d="M-320 0 L-320 -6.4" /><path stroke-width="1" stroke-dasharray="2,0.5" stroke="black" fill="none" d="M-320 -64 L-320 -57.6" /><text font-size="6.4" fill="black" text-anchor="middle" transform="matrix(0,-1,1,0,-325.12,-32)">11</text><path stroke-width="1" stroke-dasharray="2,0.5" stroke="black" fill="none" d="M-377.6 -320 L-369.6 -332.8 L-334.4 -332.8 L-326.4 -320" /><path stroke-width="1" stroke-dasharray="2,0.5" stroke="black" fill="none" d="M-371.2 -320 L-369.6 -323.2 L-334.4 -323.2 L-332.8 -320" /><path stroke-width="1" stroke-dasharray="2,0.5" stroke="black" fill="none" d="M-384 -320 L-377.6 -320" /><path stroke-width="1" stroke-dasharray="2,0.5" stroke="black" fill="none" d="M-320 -320 L-326.4 -320" /><text font-size="6.4" fill="black" text-anchor="middle" transform="matrix(1,0,0,1,-352,-325.12)">12</text><path stroke-width="1" stroke-dasharray="2,0.5" stroke="black" fill="none" d="M-336 -64 L-339.2 -48 L-364.8 -48 L-368 -64" /><path stroke-width="1" stroke-dasharray="2,0.5" stroke="black" fill="none" d="M-320 -64 L-336 -64" /><path stroke-width="1" stroke-dasharray="2,0.5" stroke="black" fill="none" d="M-384 -64 L-368 -64" /><text font-size="6.4" fill="black" text-anchor="middle" transform="matrix(-1,0,0,-1,-352,-58.88)">11</text><path stroke-width="1" stroke-dasharray="2,0.5" stroke="black" fill="none" d="M-57.6 -320 L-49.6 -332.8 L-14.4 -332.8 L-6.4 -320" /><path stroke-width="1" stroke-dasharray="2,0.5" stroke="black" fill="none" d="M-51.2 -320 L-49.6 -323.2 L-14.4 -323.2 L-12.8 -320" /><path stroke-width="1" stroke-dasharray="2,0.5" stroke="black" fill="none" d="M-64 -320 L-57.6 -320" /><path stroke-width="1" stroke-dasharray="2,0.5" stroke="black" fill="none" d="M0 -320 L-6.4 -320" /><text font-size="6.4" fill="black" text-anchor="middle" transform="matrix(1,0,0,1,-32,-325.12)">13</text><path stroke-width="1" stroke-dasharray="2,0.5" stroke="black" fill="none" d="M0 -313.6 L12.8 -305.6 L12.8 -78.4 L0 -70.4" /><path stroke-width="1" stroke-dasharray="2,0.5" stroke="black" fill="none" d="M0 -307.2 L3.2 -305.6 L3.2 -78.4 L0 -76.8" /><path stroke-width="1" stroke-dasharray="2,0.5" stroke="black" fill="none" d="M0 -320 L0 -313.6" /><path stroke-width="1" stroke-dasharray="2,0.5" stroke="black" fill="none" d="M0 -64 L0 -70.4" /><text font-size="6.4" fill="black" text-anchor="middle" transform="matrix(0,1,-1,0,5.12,-192)">14</text><path stroke-width="1" stroke-dasharray="2,0.5" stroke="black" fill="none" d="M-16 -64 L-19.2 -48 L-44.8 -48 L-48 -64" /><path stroke-width="1" stroke-dasharray="2,0.5" stroke="black" fill="none" d="M0 -64 L-16 -64" /><path stroke-width="1" stroke-dasharray="2,0.5" stroke="black" fill="none" d="M-64 -64 L-48 -64" /><text font-size="6.4" fill="black" text-anchor="middle" transform="matrix(-1,0,0,-1,-32,-58.88)">9</text><path stroke-width="1" stroke-dasharray="2,0.5" stroke="black" fill="none" d="M-633.6 -320 L-625.6 -332.8 L-398.4 -332.8 L-390.4 -320" /><path stroke-width="1" stroke-dasharray="2,0.5" stroke="black" fill="none" d="M-627.2 -320 L-625.6 -323.2 L-398.4 -323.2 L-396.8 -320" /><path stroke-width="1" stroke-dasharray="2,0.5" stroke="black" fill="none" d="M-640 -320 L-633.6 -320" /><path stroke-width="1" stroke-dasharray="2,0.5" stroke="black" fill="none" d="M-384 -320 L-390.4 -320" /><text font-size="6.4" fill="black" text-anchor="middle" transform="matrix(1,0,0,1,-512,-325.12)">15</text><path stroke-width="1" stroke-dasharray="2,0.5" stroke="black" fill="none" d="M-400 -64 L-403.2 -48 L-620.8 -48 L-624 -64" /><path stroke-width="1" stroke-dasharray="2,0.5" stroke="black" fill="none" d="M-384 -64 L-400 -64" /><path stroke-width="1" stroke-dasharray="2,0.5" stroke="black" fill="none" d="M-640 -64 L-624 -64" /><text font-size="6.4" fill="black" text-anchor="middle" transform="matrix(-1,0,0,-1,-512,-58.88)">10</text><path stroke-width="1" stroke-dasharray="2,0.5" stroke="black" fill="none" d="M-569.6 -128 L-561.6 -140.8 L-526.4 -140.8 L-518.4 -128" /><path stroke-width="1" stroke-dasharray="2,0.5" stroke="black" fill="none" d="M-563.2 -128 L-561.6 -131.2 L-526.4 -131.2 L-524.8 -128" /><path stroke-width="1" stroke-dasharray="2,0.5" stroke="black" fill="none" d="M-576 -128 L-569.6 -128" /><path stroke-width="1" stroke-dasharray="2,0.5" stroke="black" fill="none" d="M-512 -128 L-518.4 -128" /><text font-size="6.4" fill="black" text-anchor="middle" transform="matrix(1,0,0,1,-544,-133.12)">16</text><path stroke-width="1" stroke-dasharray="2,0.5" stroke="black" fill="none" d="M-512 -134.4 L-524.8 -142.4 L-524.8 -177.6 L-512 -185.6" /><path stroke-width="1" stroke-dasharray="2,0.5" stroke="black" fill="none" d="M-512 -140.8 L-515.2 -142.4 L-515.2 -177.6 L-512 -179.2" /><path stroke-width="1" stroke-dasharray="2,0.5" stroke="black" fill="none" d="M-512 -128 L-512 -134.4" /><path stroke-width="1" stroke-dasharray="2,0.5" stroke="black" fill="none" d="M-512 -192 L-512 -185.6" /><text font-size="6.4" fill="black" text-anchor="middle" transform="matrix(0,-1,1,0,-517.12,-160)">17</text><path stroke-width="1" stroke-dasharray="2,0.5" stroke="black" fill="none" d="M-505.6 -192 L-497.6 -204.8 L-462.4 -204.8 L-454.4 -192" /><path stroke-width="1" stroke-dasharray="2,0.5" stroke="black" fill="none" d="M-499.2 -192 L-497.6 -195.2 L-462.4 -195.2 L-460.8 -192" /><path stroke-width="1" stroke-dasharray="2,0.5" stroke="black" fill="none" d="M-512 -192 L-505.6 -192" /><path stroke-width="1" stroke-dasharray="2,0.5" stroke="black" fill="none" d="M-448 -192 L-454.4 -192" /><text font-size="6.4" fill="black" text-anchor="middle" transform="matrix(1,0,0,1,-480,-197.12)">18</text><path stroke-width="1" stroke-dasharray="2,0.5" stroke="black" fill="none" d="M-448 -198.4 L-460.8 -206.4 L-460.8 -241.6 L-448 -249.6" /><path stroke-width="1" stroke-dasharray="2,0.5" stroke="black" fill="none" d="M-448 -204.8 L-451.2 -206.4 L-451.2 -241.6 L-448 -243.2" /><path stroke-width="1" stroke-dasharray="2,0.5" stroke="black" fill="none" d="M-448 -192 L-448 -198.4" /><path stroke-width="1" stroke-dasharray="2,0.5" stroke="black" fill="none" d="M-448 -256 L-448 -249.6" /><text font-size="6.4" fill="black" text-anchor="middle" transform="matrix(0,-1,1,0,-453.12,-224)">19</text><path stroke-width="1" stroke-dasharray="2,0.5" stroke="black" fill="none" d="M-454.4 -256 L-462.4 -243.2 L-497.6 -243.2 L-505.6 -256" /><path stroke-width="1" stroke-dasharray="2,0.5" stroke="black" fill="none" d="M-460.8 -256 L-462.4 -252.8 L-497.6 -252.8 L-499.2 -256" /><path stroke-width="1" stroke-dasharray="2,0.5" stroke="black" fill="none" d="M-448 -256 L-454.4 -256" /><path stroke-width="1" stroke-dasharray="2,0.5" stroke="black" fill="none" d="M-512 -256 L-505.6 -256" /><text font-size="6.4" fill="black" text-anchor="middle" transform="matrix(-1,0,0,-1,-480,-250.88)">20</text><path stroke-width="1" stroke-dasharray="2,0.5" stroke="black" fill="none" d="M-512 -249.6 L-499.2 -241.6 L-499.2 -206.4 L-512 -198.4" /><path stroke-width="1" stroke-dasharray="2,0.5" stroke="black" fill="none" d="M-512 -243.2 L-508.8 -241.6 L-508.8 -206.4 L-512 -204.8" /><path stroke-width="1" stroke-dasharray="2,0.5" stroke="black" fill="none" d="M-512 -256 L-512 -249.6" /><path stroke-width="1" stroke-dasharray="2,0.5" stroke="black" fill="none" d="M-512 -192 L-512 -198.4" /><text font-size="6.4" fill="black" text-anchor="middle" transform="matrix(0,1,-1,0,-506.88,-224)">21</text><path stroke-width="1" stroke-dasharray="2,0.5" stroke="black" fill="none" d="M-518.4 -192 L-526.4 -179.2 L-561.6 -179.2 L-569.6 -192" /><path stroke-width="1" stroke-dasharray="2,0.5" stroke="black" fill="none" d="M-524.8 -192 L-526.4 -188.8 L-561.6 -188.8 L-563.2 -192" /><path stroke-width="1" stroke-dasharray="2,0.5" stroke="black" fill="none" d="M-512 -192 L-518.4 -192" /><path stroke-width="1" stroke-dasharray="2,0.5" stroke="black" fill="none" d="M-576 -192 L-569.6 -192" /><text font-size="6.4" fill="black" text-anchor="middle" transform="matrix(-1,0,0,-1,-544,-186.88)">22</text><path stroke-width="1" stroke-dasharray="2,0.5" stroke="black" fill="none" d="M-576 -185.6 L-563.2 -177.6 L-563.2 -142.4 L-576 -134.4" /><path stroke-width="1" stroke-dasharray="2,0.5" stroke="black" fill="none" d="M-576 -179.2 L-572.8 -177.6 L-572.8 -142.4 L-576 -140.8" /><path stroke-width="1" stroke-dasharray="2,0.5" stroke="black" fill="none" d="M-576 -192 L-576 -185.6" /><path stroke-width="1" stroke-dasharray="2,0.5" stroke="black" fill="none" d="M-576 -128 L-576 -134.4" /><text font-size="6.4" fill="black" text-anchor="middle" transform="matrix(0,1,-1,0,-570.88,-160)">23</text><path stroke-width="1" stroke-dasharray="2,0.5" stroke="black" fill="none" d="M-640 -80 L-656 -83.2 L-656 -300.8 L-640 -304" /><path stroke-width="1" stroke-dasharray="2,0.5" stroke="black" fill="none" d="M-640 -64 L-640 -80" /><path stroke-width="1" stroke-dasharray="2,0.5" stroke="black" fill="none" d="M-640 -320 L-640 -304" /><text font-size="6.4" fill="black" text-anchor="middle" transform="matrix(0,-1,1,0,-645.12,-192)">14</text><line x1="-64" y1="-64" x2="-320" y2="-64" stroke="black" stroke-width="1" /><line x1="-320" y1="-64" x2="-320" y2="-320" stroke="black" stroke-width="1" /><line x1="-64" y1="-320" x2="-64" y2="-64" stroke="black" stroke-width="1" /><line x1="-384" y1="-64" x2="-384" y2="-320" stroke="black" stroke-width="1" /></g><g transform="translate(960,64)"><path stroke="purple" fill="purple" d="M-128 192 L-128 128 L-64 128 L-64 192 L-128 192" /><path stroke="purple" fill="purple" d="M-128 256 L-64 256 L-64 192 L-128 192 L-128 256" /><path stroke="purple" fill="purple" d="M-128 64 L-64 64 L-64 128 L-128 128 L-128 64" /><path stroke="purple" fill="purple" d="M-128 320 L-128 256 L-64 256 L-64 320 L-128 320" /><path stroke="purple" fill="purple" d="M-128 0 L-128 64 L-64 64 L-64 0 L-128 0" /><path stroke-width="1" stroke-dasharray="2,0.5" stroke="black" fill="none" d="M-128 176 L-144 172.8 L-144 147.2 L-128 144" /><path stroke-width="1" stroke-dasharray="2,0.5" stroke="black" fill="none" d="M-128 192 L-128 176" /><path stroke-width="1" stroke-dasharray="2,0.5" stroke="black" fill="none" d="M-128 128 L-128 144" /><text font-size="6.4" fill="black" text-anchor="middle" transform="matrix(0,-1,1,0,-133.12,160)">16</text><path stroke-width="1" stroke-dasharray="2,0.5" stroke="black" fill="none" d="M-64 144 L-48 147.2 L-48 172.8 L-64 176" /><path stroke-width="1" stroke-dasharray="2,0.5" stroke="black" fill="none" d="M-64 128 L-64 144" /><path stroke-width="1" stroke-dasharray="2,0.5" stroke="black" fill="none" d="M-64 192 L-64 176" /><text font-size="6.4" fill="black" text-anchor="middle" transform="matrix(0,1,-1,0,-58.88,160)">7</text><path stroke-width="1" stroke-dasharray="2,0.5" stroke="black" fill="none" d="M-64 208 L-48 211.2 L-48 236.8 L-64 240" /><path stroke-width="1" stroke-dasharray="2,0.5" stroke="black" fill="none" d="M-64 192 L-64 208" /><path stroke-width="1" stroke-dasharray="2,0.5" stroke="black" fill="none" d="M-64 256 L-64 240" /><text font-size="6.4" fill="black" text-anchor="middle" transform="matrix(0,1,-1,0,-58.88,224)">6</text><path stroke-width="1" stroke-dasharray="2,0.5" stroke="black" fill="none" d="M-128 240 L-144 236.8 L-144 211.2 L-128 208" /><path stroke-width="1" stroke-dasharray="2,0.5" stroke="black" fill="none" d="M-128 256 L-128 240" /><path stroke-width="1" stroke-dasharray="2,0.5" stroke="black" fill="none" d="M-128 192 L-128 208" /><text font-size="6.4" fill="black" text-anchor="middle" transform="matrix(0,-1,1,0,-133.12,224)">17</text><path stroke-width="1" stroke-dasharray="2,0.5" stroke="black" fill="none" d="M-128 112 L-144 108.8 L-144 83.2 L-128 80" /><path stroke-width="1" stroke-dasharray="2,0.5" stroke="black" fill="none" d="M-128 128 L-128 112" /><path stroke-width="1" stroke-dasharray="2,0.5" stroke="black" fill="none" d="M-128 64 L-128 80" /><text font-size="6.4" fill="black" text-anchor="middle" transform="matrix(0,-1,1,0,-133.12,96)">23</text><path stroke-width="1" stroke-dasharray="2,0.5" stroke="black" fill="none" d="M-64 80 L-48 83.2 L-48 108.8 L-64 112" /><path stroke-width="1" stroke-dasharray="2,0.5" stroke="black" fill="none" d="M-64 64 L-64 80" /><path stroke-width="1" stroke-dasharray="2,0.5" stroke="black" fill="none" d="M-64 128 L-64 112" /><text font-size="6.4" fill="black" text-anchor="middle" transform="matrix(0,1,-1,0,-58.88,96)">0</text><path stroke-width="1" stroke-dasharray="2,0.5" stroke="black" fill="none" d="M-70.4 320 L-78.4 332.8 L-113.6 332.8 L-121.6 320" /><path stroke-width="1" stroke-dasharray="2,0.5" stroke="black" fill="none" d="M-76.8 320 L-78.4 323.2 L-113.6 323.2 L-115.2 320" /><path stroke-width="1" stroke-dasharray="2,0.5" stroke="black" fill="none" d="M-64 320 L-70.4 320" /><path stroke-width="1" stroke-dasharray="2,0.5" stroke="black" fill="none" d="M-128 320 L-121.6 320" /><text font-size="6.4" fill="black" text-anchor="middle" transform="matrix(-1,0,0,-1,-96,325.12)">24</text><path stroke-width="1" stroke-dasharray="2,0.5" stroke="black" fill="none" d="M-128 304 L-144 300.8 L-144 275.2 L-128 272" /><path stroke-width="1" stroke-dasharray="2,0.5" stroke="black" fill="none" d="M-128 320 L-128 304" /><path stroke-width="1" stroke-dasharray="2,0.5" stroke="black" fill="none" d="M-128 256 L-128 272" /><text font-size="6.4" fill="black" text-anchor="middle" transform="matrix(0,-1,1,0,-133.12,288)">18</text><path stroke-width="1" stroke-dasharray="2,0.5" stroke="black" fill="none" d="M-64 272 L-48 275.2 L-48 300.8 L-64 304" /><path stroke-width="1" stroke-dasharray="2,0.5" stroke="black" fill="none" d="M-64 256 L-64 272" /><path stroke-width="1" stroke-dasharray="2,0.5" stroke="black" fill="none" d="M-64 320 L-64 304" /><text font-size="6.4" fill="black" text-anchor="middle" transform="matrix(0,1,-1,0,-58.88,288)">5</text><path stroke-width="1" stroke-dasharray="2,0.5" stroke="black" fill="none" d="M-128 48 L-144 44.8 L-144 19.2 L-128 16" /><path stroke-width="1" stroke-dasharray="2,0.5" stroke="black" fill="none" d="M-128 64 L-128 48" /><path stroke-width="1" stroke-dasharray="2,0.5" stroke="black" fill="none" d="M-128 0 L-128 16" /><text font-size="6.4" fill="black" text-anchor="middle" transform="matrix(0,-1,1,0,-133.12,32)">22</text><path stroke-width="1" stroke-dasharray="2,0.5" stroke="black" fill="none" d="M-121.6 0 L-113.6 -12.8 L-78.4 -12.8 L-70.4 0" /><path stroke-width="1" stroke-dasharray="2,0.5" stroke="black" fill="none" d="M-115.2 0 L-113.6 -3.2 L-78.4 -3.2 L-76.8 0" /><path stroke-width="1" stroke-dasharray="2,0.5" stroke="black" fill="none" d="M-128 0 L-121.6 0" /><path stroke-width="1" stroke-dasharray="2,0.5" stroke="black" fill="none" d="M-64 0 L-70.4 0" /><text font-size="6.4" fill="black" text-anchor="middle" transform="matrix(1,0,0,1,-96,-5.12)">25</text><path stroke-width="1" stroke-dasharray="2,0.5" stroke="black" fill="none" d="M-64 16 L-48 19.2 L-48 44.8 L-64 48" /><path stroke-width="1" stroke-dasharray="2,0.5" stroke="black" fill="none" d="M-64 0 L-64 16" /><path stroke-width="1" stroke-dasharray="2,0.5" stroke="black" fill="none" d="M-64 64 L-64 48" /><text font-size="6.4" fill="black" text-anchor="middle" transform="matrix(0,1,-1,0,-58.88,32)">1</text><line x1="-64" y1="192" x2="-128" y2="192" stroke="white" stroke-width="1" /><line x1="-128" y1="128" x2="-64" y2="128" stroke="white" stroke-width="1" /><line x1="-64" y1="256" x2="-128" y2="256" stroke="black" stroke-width="1" /><line x1="-128" y1="64" x2="-64" y2="64" stroke="white" stroke-width="1" /></g></svg>